<svg width="80" height="80" viewBox="0 0 80 80" fill="none" xmlns="http://www.w3.org/2000/svg">
<path d="M43.2097 75.879C57.1259 75.879 68.4072 74.6624 68.4072 73.1617C68.4072 71.6609 57.1259 70.4443 43.2097 70.4443C29.2935 70.4443 18.0122 71.6609 18.0122 73.1617C18.0122 74.6624 29.2935 75.879 43.2097 75.879Z" fill="#1C1C1C" stroke="#1C1C1C" stroke-width="0.3"/>
<path d="M52.6959 79.0851C55.9124 79.0851 58.5198 78.8037 58.5198 78.4566C58.5198 78.1095 55.9124 77.8281 52.6959 77.8281C49.4795 77.8281 46.8721 78.1095 46.8721 78.4566C46.8721 78.8037 49.4795 79.0851 52.6959 79.0851Z" fill="#1C1C1C" stroke="#1C1C1C" stroke-width="0.3"/>
<path d="M36.0018 60.7511C36.0018 60.7511 34.997 60.475 33.44 60.1548C32.8722 61.2167 31.4782 62.1792 29.0608 62.7884C20.9871 64.8238 22.0941 71.7906 22.0959 71.8062C33.2366 75.359 56.6094 70.5446 59.9 73.2923C64.1126 76.8148 46.6382 58.1948 36.0018 60.7511Z" fill="#B3F2FF"/>
<path opacity="0.53" d="M50.2943 67.5192C44.8081 62.3735 34.5177 67.0453 34.5177 67.0453C34.5177 67.0453 27.4046 70.8733 22.2313 69.1617C22.0392 70.0277 21.9934 70.9197 22.096 71.8008C29.2836 74.0958 41.5681 72.905 50.2621 72.5103C52.3583 71.4217 52.8496 69.9163 50.2943 67.5192Z" fill="#42DFFF"/>
<path fill-rule="evenodd" clip-rule="evenodd" d="M36.0018 60.7511C36.0018 60.7511 34.997 60.475 33.44 60.1548C32.8722 61.2167 31.4782 62.1792 29.0608 62.7884C20.9871 64.8238 22.0941 71.7906 22.0959 71.8062C33.2366 75.359 56.6094 70.5446 59.9 73.2923C64.1126 76.8148 46.6382 58.1948 36.0018 60.7511Z" stroke="#1C1C1C" stroke-width="0.3"/>
<path fill-rule="evenodd" clip-rule="evenodd" d="M36.0018 60.7511C36.0018 60.7511 34.997 60.475 33.44 60.1548C32.8722 61.2167 31.4782 62.1792 29.0608 62.7884C20.9871 64.8238 22.0941 71.7906 22.0959 71.8062C33.2366 75.359 56.6094 70.5446 59.9 73.2923C64.1126 76.8148 46.6382 58.1948 36.0018 60.7511Z" stroke="#1C1C1C" stroke-width="0.3"/>
<path fill-rule="evenodd" clip-rule="evenodd" d="M36.0018 60.7511C36.0018 60.7511 34.997 60.475 33.44 60.1548C32.8722 61.2167 31.4782 62.1792 29.0608 62.7884C20.9871 64.8238 22.0941 71.7906 22.0959 71.8062C33.2366 75.359 56.6094 70.5446 59.9 73.2923C64.1126 76.8148 46.6382 58.1948 36.0018 60.7511Z" stroke="#1C1C1C" stroke-width="0.3"/>
<path d="M29.0608 62.7886C31.4781 62.1767 32.8685 61.2169 33.4399 60.1522C27.755 58.9891 14.7123 57.2693 16.318 66.4408C16.7882 69.1296 18.9562 70.797 22.0959 71.8C22.094 71.7908 20.987 64.824 29.0608 62.7886V62.7886Z" fill="#705BE1"/>
<path opacity="0.55" d="M22.096 71.8026C21.9934 70.9215 22.0391 70.0295 22.2313 69.1635C21.6556 68.9759 21.1071 68.7135 20.5998 68.3832C15.4559 64.9996 16.8362 61.9005 18.7171 60.5146C16.8518 61.5811 15.789 63.4206 16.3181 66.4434C16.7884 69.1322 18.9563 70.7996 22.096 71.8026V71.8026Z" fill="#533ADB"/>
<path fill-rule="evenodd" clip-rule="evenodd" d="M29.0608 62.7886C31.4781 62.1767 32.8685 61.2169 33.4399 60.1522C27.755 58.9891 14.7123 57.2693 16.318 66.4408C16.7882 69.1296 18.9562 70.797 22.0959 71.8C22.094 71.7908 20.987 64.824 29.0608 62.7886V62.7886Z" stroke="#1C1C1C" stroke-width="0.3"/>
<path d="M46.7882 39.7873C47.8492 40.1223 49.6012 40.4793 49.5856 39.1782C49.5626 37.3139 45.9554 35.2876 38.8957 39.1782C31.8361 43.0687 31.2582 36.5326 36.6008 34.6554C41.9434 32.7783 50.8747 37.981 53.5451 32.3412C54.5813 29.7646 51.5888 26.4934 45.9481 27.4366C45.626 27.4366 43.435 28.0586 43.066 25.5723" stroke="#1C1C1C" stroke-width="0.3" stroke-linecap="round"/>
<path d="M45.9978 39.501C45.9978 39.501 46.1506 39.5654 46.3926 39.6528" stroke="#1C1C1C" stroke-width="0.3" stroke-linecap="round"/>
<path d="M55.3212 62.9358C52.1162 62.7591 50.7663 60.0391 50.2979 58.7241C48.3848 58.8723 47.126 59.0922 47.126 59.0922C44.3287 61.6135 37.3187 60.7154 32.138 61.0246C26.9573 61.3338 21.9506 67.4181 25.4989 65.3789C29.0471 63.3398 31.2749 64.3097 31.7929 64.7928C41.5331 73.5907 52.9573 75.4016 60.4936 73.7388C67.3278 68.5941 59.5541 63.1686 55.3212 62.9358V62.9358Z" fill="#B3F2FF"/>
<path fill-rule="evenodd" clip-rule="evenodd" d="M55.3212 62.9358C52.1162 62.7591 50.7663 60.0391 50.2979 58.7241C48.3848 58.8723 47.126 59.0922 47.126 59.0922C44.3287 61.6135 37.3187 60.7154 32.138 61.0246C26.9573 61.3338 21.9506 67.4181 25.4989 65.3789C29.0471 63.3398 31.2749 64.3097 31.7929 64.7928C41.5331 73.5907 52.9573 75.4016 60.4936 73.7388C67.3278 68.5941 59.5541 63.1686 55.3212 62.9358V62.9358Z" stroke="#1C1C1C" stroke-width="0.3"/>
<path d="M68.2959 64.9639C65.4709 58.4563 55.4813 58.3229 50.2988 58.7241C50.7672 60.039 52.1171 62.7591 55.3221 62.9358C59.555 63.1686 67.3324 68.594 60.4945 73.7369C66.472 72.4174 70.0028 68.9069 68.2959 64.9639Z" fill="#705BE1"/>
<path opacity="0.55" d="M66.0523 61.9614C66.0523 61.9725 68.696 68.1828 63.046 70.4584C62.7414 71.5286 61.9492 72.6393 60.4897 73.7371C66.471 72.4175 70.0026 68.907 68.2911 64.964C67.7854 63.8044 67.0193 62.777 66.0523 61.9614V61.9614Z" fill="#533ADB"/>
<path fill-rule="evenodd" clip-rule="evenodd" d="M68.2959 64.9639C65.4709 58.4563 55.4813 58.3229 50.2988 58.7241C50.7672 60.039 52.1171 62.7591 55.3221 62.9358C59.555 63.1686 67.3324 68.594 60.4945 73.7369C66.472 72.4174 70.0028 68.9069 68.2959 64.9639Z" stroke="#1C1C1C" stroke-width="0.3"/>
<path d="M44.6358 41.9326C44.6358 41.9326 51.8188 46.1802 53.8911 53.5012C55.9633 60.8223 51.1305 63.0372 51.1305 63.0372C51.1305 63.0372 30.4447 62.5154 28.4764 59.9941C26.5081 57.4728 35.4137 41.9989 41.44 41.1045C44.1868 40.9628 44.6358 41.9326 44.6358 41.9326V41.9326Z" fill="white" stroke="#1C1C1C" stroke-width="0.3"/>
<path d="M49.4705 48.3878C51.2142 51.1373 51.655 55.5146 51.6789 55.7658C58.1939 54.7849 62.1626 58.9046 62.1691 58.9092C62.4129 57.9126 62.331 56.7008 61.835 55.2285C57.4135 42.1029 44.7738 41.1045 44.7738 41.1045C44.4978 41.2425 43.4773 42.9347 43.4773 42.9347" fill="white"/>
<path opacity="0.25" d="M42.9207 44.9892C42.9207 44.9892 44.6985 44.865 45.0472 43.2767C45.396 41.6885 45.9674 42.4707 45.9361 42.8737C45.9048 43.2767 46.0806 42.0161 45.9508 41.2762C45.8671 41.1704 45.0472 41.1309 45.0472 41.1309C45.0472 41.1309 41.7023 44.3073 42.9207 44.9892V44.9892Z" fill="#FFCC71"/>
<path opacity="0.25" d="M45.9508 41.2764C45.9913 41.6067 46.4605 45.8948 43.3061 46.1607C43.3061 46.1607 42.9436 46.1202 43.1626 46.7414C43.3816 47.3625 46.8691 45.7292 47.0872 43.4839C47.3053 41.2386 52.7169 44.3259 52.3019 46.8748C51.8869 49.4237 60.1759 51.392 60.072 56.3647C60.0655 56.6639 59.9791 56.9558 59.8217 57.2103C61.3372 58.0496 62.1654 58.9072 62.1672 58.909C62.4111 57.9124 62.3292 56.7006 61.8332 55.2283C58.2353 44.5421 49.1898 41.8929 45.9508 41.2764V41.2764Z" fill="#FFCC71"/>
<path d="M49.4705 48.3878C51.2142 51.1373 51.655 55.5146 51.6789 55.7658C58.1939 54.7849 62.1626 58.9046 62.1691 58.9092C62.4129 57.9126 62.331 56.7008 61.835 55.2285C57.4135 42.1029 44.7738 41.1045 44.7738 41.1045C44.4978 41.2425 43.4773 42.9347 43.4773 42.9347" stroke="#1C1C1C" stroke-width="0.3" stroke-linecap="round"/>
<path opacity="0.25" d="M51.679 55.7658C51.6551 55.5146 51.2143 51.1372 49.4705 48.3877C49.534 48.4908 50.6447 53.3107 47.2428 55.6149C43.8408 57.919 51.2124 56.9951 51.679 55.7658" fill="#FFCC71"/>
<path d="M37.8669 61.0273C37.8669 61.0273 60.2404 66.7969 62.1673 58.9109C62.1673 58.9109 58.1939 54.7866 51.6771 55.7675V55.7795L37.8669 61.0273Z" fill="#B3F2FF"/>
<path opacity="0.53" d="M59.8217 57.2075C57.8562 60.4438 44.8392 60.1613 39.6448 61.4404C44.9773 62.609 60.5726 65.434 62.1673 58.9071C62.1655 58.9071 61.3373 58.0495 59.8217 57.2075Z" fill="#42DFFF"/>
<path fill-rule="evenodd" clip-rule="evenodd" d="M37.8669 61.0273C37.8669 61.0273 60.2404 66.7969 62.1673 58.9109C62.1673 58.9109 58.1939 54.7866 51.6771 55.7675V55.7795L37.8669 61.0273Z" stroke="#1C1C1C" stroke-width="0.3"/>
<path d="M43.066 46.1719V55.5449" stroke="#1C1C1C" stroke-width="0.3" stroke-linecap="round"/>
<path d="M44.8945 38.8563C44.8945 38.8563 45.8303 44.5201 43.066 44.9691C40.3018 45.4182 41.752 38.3042 41.752 38.3042L44.8945 38.8563Z" fill="#B3F2FF"/>
<path d="M41.3721 40.6867C41.8036 41.0087 43.2318 41.9473 45.0473 41.1311C45.0766 40.3696 45.0254 39.6071 44.8946 38.8564L43.8612 38.6724C43.6404 38.7022 43.4284 38.7784 43.2391 38.896C42.4892 39.3671 41.8588 39.6156 41.5147 39.8235C41.4917 40.0103 41.3914 40.4769 41.3721 40.6867H41.3721Z" fill="#1C1C1C"/>
<path fill-rule="evenodd" clip-rule="evenodd" d="M44.8945 38.8563C44.8945 38.8563 45.8303 44.5201 43.066 44.9691C40.3018 45.4182 41.752 38.3042 41.752 38.3042L44.8945 38.8563Z" stroke="#1C1C1C" stroke-width="0.3"/>
<path d="M39.7479 33.1905C39.7479 33.1905 40.0175 34.0371 39.2114 34.4052C38.4053 34.7733 39.3264 36.1434 39.9024 36.1775C40.4785 36.2115 39.5114 37.3314 40.5585 37.2394C41.6057 37.1473 43.1719 33.3488 41.8597 32.4167C40.5475 31.4845 39.0338 32.6881 39.7479 33.1905V33.1905Z" fill="#0D0416" stroke="#1C1C1C" stroke-width="0.3"/>
<path d="M41.2054 33.3075C41.2054 33.3075 38.3271 40.5521 42.8167 40.8097C45.073 40.8097 46.6152 37.8863 45.4181 33.6056C44.2209 29.3249 41.2054 33.3075 41.2054 33.3075V33.3075Z" fill="#B3F2FF"/>
<path opacity="0.53" d="M45.418 33.6056C45.2386 32.9615 45.0177 32.5078 44.7739 32.1959C44.3278 31.9159 43.8247 31.7392 43.3016 31.6787C42.2167 31.9704 41.2035 33.3074 41.2035 33.3074C41.2035 33.3074 41.1115 33.5485 40.979 33.9424C41.6066 34.1043 42.4081 34.1881 43.0899 33.866C44.4435 33.2274 43.8868 35.9199 44.8585 36.3257C45.8302 36.7315 45.6646 38.9758 43.8739 40.5723L43.8932 40.5631C43.9981 40.5079 44.1021 40.4481 44.2052 40.3837C45.6278 39.4267 46.3455 36.9238 45.418 33.6056V33.6056Z" fill="#42DFFF"/>
<path fill-rule="evenodd" clip-rule="evenodd" d="M41.2054 33.3075C41.2054 33.3075 38.3271 40.5521 42.8167 40.8097C45.073 40.8097 46.6152 37.8863 45.4181 33.6056C44.2209 29.3249 41.2054 33.3075 41.2054 33.3075V33.3075Z" stroke="#1C1C1C" stroke-width="0.3"/>
<path d="M41.1595 41.0122C35.5537 41.1042 28.4738 46.5168 25.9874 52.0646C23.6594 57.259 25.5862 60.3131 28.4269 61.0263C28.3109 58.2648 33.245 49.5948 41.1595 41.0122Z" fill="white"/>
<path opacity="0.25" d="M28.4204 57.4441C23.2241 56.9398 27.3401 49.7265 27.5214 49.4146C26.9253 50.2448 26.4116 51.1311 25.9874 52.061C23.6594 57.2555 25.5862 60.3096 28.4269 61.0227C28.3946 60.2488 28.759 59.0103 29.4759 57.434C29.1254 57.4743 28.7716 57.4777 28.4204 57.4441V57.4441Z" fill="#FFCC71"/>
<path fill-rule="evenodd" clip-rule="evenodd" d="M41.1595 41.0122C35.5537 41.1042 28.4738 46.5168 25.9874 52.0646C23.6594 57.259 25.5862 60.3131 28.4269 61.0263C28.3109 58.2648 33.245 49.5948 41.1595 41.0122Z" stroke="#1C1C1C" stroke-width="0.3"/>
<path d="M45.9482 41.2544C45.9482 41.2544 46.5868 45.8839 43.3064 46.1608C40.0259 46.4378 40.4915 42.0678 40.4915 42.0678" stroke="#1C1C1C" stroke-width="0.3"/>
<path d="M41.2423 42.4847C41.2014 42.5018 41.163 42.5244 41.1282 42.5518C37.4336 44.8247 39.2261 51.3525 35.6208 57.6144C33.936 60.5397 30.8478 61.6338 28.425 61.0264C28.309 58.2659 29.6212 50.9403 37.5348 42.354C38.3013 41.5258 39.0991 40.8817 40.0101 40.0342C40.9542 39.0772 39.9181 40.9967 40.2991 40.7897C40.68 40.5826 41.5754 40.2302 42.0474 40.2762C42.5195 40.3222 41.1613 41.0124 41.1613 41.0124C41.1613 41.0124 42.5029 40.3682 42.5793 40.6158C42.6253 40.7667 41.9867 41.1338 41.6333 41.2866C41.3968 41.3896 41.1953 41.4614 41.1953 41.4614C41.2413 41.4504 42.421 41.2074 42.4422 41.42C42.4633 41.6326 41.2505 41.9565 41.2505 41.9565C41.2505 41.9565 42.9741 41.6786 41.2423 42.4847V42.4847Z" fill="#B3F2FF"/>
<path opacity="0.53" d="M41.2488 41.953C41.2488 41.953 42.4616 41.63 42.4404 41.4165C42.4378 41.4005 42.4289 41.3862 42.4156 41.377C41.5874 41.5361 39.0937 42.3137 37.499 46.0165C35.6154 50.3884 33.8265 57.5686 28.8308 57.4674C28.483 58.9949 28.3928 60.2086 28.4269 61.023C30.8497 61.6303 33.9379 60.5362 35.6227 57.6109C39.228 51.3536 37.4355 44.8203 41.13 42.5484C41.1645 42.5223 41.2023 42.501 41.2423 42.4849C42.9741 41.6788 41.2488 41.953 41.2488 41.953V41.953Z" fill="#42DFFF"/>
<path fill-rule="evenodd" clip-rule="evenodd" d="M41.2423 42.4847C41.2014 42.5018 41.163 42.5244 41.1282 42.5518C37.4336 44.8247 39.2261 51.3525 35.6208 57.6144C33.936 60.5397 30.8478 61.6338 28.425 61.0264C28.309 58.2659 29.6212 50.9403 37.5348 42.354C38.3013 41.5258 39.0991 40.8817 40.0101 40.0342C40.9542 39.0772 39.9181 40.9967 40.2991 40.7897C40.68 40.5826 41.5754 40.2302 42.0474 40.2762C42.5195 40.3222 41.1613 41.0124 41.1613 41.0124C41.1613 41.0124 42.5029 40.3682 42.5793 40.6158C42.6253 40.7667 41.9867 41.1338 41.6333 41.2866C41.3968 41.3896 41.1953 41.4614 41.1953 41.4614C41.2413 41.4504 42.421 41.2074 42.4422 41.42C42.4633 41.6326 41.2505 41.9565 41.2505 41.9565C41.2505 41.9565 42.9741 41.6786 41.2423 42.4847V42.4847Z" stroke="#1C1C1C" stroke-width="0.3"/>
<path d="M50.9558 61.9924C50.9558 61.9924 53.8562 57.1578 53.1642 53.1513C51.4729 53.0823 34.5166 53.1513 34.5166 53.1513C34.5166 53.1513 34.6887 58.815 37.245 61.6814C40.6294 62.3734 50.9558 61.9924 50.9558 61.9924V61.9924Z" fill="#FFCC71"/>
<path opacity="0.74" d="M53.1652 53.1534C52.6131 53.1313 50.4166 53.123 47.7167 53.123C49.397 53.446 51.9183 54.1711 51.934 55.6149C51.957 57.781 48.8486 56.7099 49.0906 58.8356C49.3326 60.9612 38.2636 59.5312 37.2137 61.4885C37.195 61.5237 37.1808 61.5611 37.1714 61.5998C37.1962 61.6283 37.2202 61.6569 37.2459 61.6854C38.455 61.932 40.5503 62.0424 42.744 62.082C46.2822 61.8354 50.3098 61.4241 50.9576 61.99C51.0018 61.9164 53.8489 57.1286 53.1652 53.1534V53.1534Z" fill="#F9A45F"/>
<path fill-rule="evenodd" clip-rule="evenodd" d="M50.9558 61.9924C50.9558 61.9924 53.8562 57.1578 53.1642 53.1513C51.4729 53.0823 34.5166 53.1513 34.5166 53.1513C34.5166 53.1513 34.6887 58.815 37.245 61.6814C40.6294 62.3734 50.9558 61.9924 50.9558 61.9924V61.9924Z" stroke="#1C1C1C" stroke-width="0.3"/>
<path d="M42.952 26.2164C43.3763 26.2164 43.7203 25.8724 43.7203 25.448C43.7203 25.0237 43.3763 24.6797 42.952 24.6797C42.5276 24.6797 42.1836 25.0237 42.1836 25.448C42.1836 25.8724 42.5276 26.2164 42.952 26.2164Z" fill="#1C1C1C" stroke="#1C1C1C" stroke-width="0.3"/>
<rect x="36.7278" y="61.4248" width="14.919" height="1.5864" rx="0.793201" fill="#FFCC71"/>
<path opacity="0.74" d="M37.1714 62.9293C37.2799 62.9828 37.3992 63.0108 37.5201 63.0112H50.8527C51.2908 63.0112 51.6459 62.6561 51.6459 62.218C51.6459 61.7799 51.2908 61.4248 50.8527 61.4248H47.6118C48.5872 61.5812 50.342 61.5021 49.9795 62.3045C49.7126 62.8953 37.6057 61.8858 37.1714 62.9293H37.1714Z" fill="#F9A45F"/>
<rect x="36.7278" y="61.4248" width="14.919" height="1.5864" rx="0.793201" stroke="#1C1C1C" stroke-width="0.3"/>
<path d="M45.8339 36.3812C45.672 34.0218 44.8429 33.9758 44.9138 34.551C44.9846 35.1261 45.3508 36.4833 44.9138 36.0711C44.6009 35.7739 44.2402 34.3319 44.0607 33.5369C44.034 33.4191 43.9538 33.3205 43.8438 33.2703C43.7339 33.2202 43.6069 33.2241 43.5003 33.2811C42.6096 33.7531 40.5143 34.5215 38.3519 32.8477C35.4993 30.6392 38.3979 26.7928 40.4932 27.898C42.5884 29.0031 42.5424 31.3745 44.0819 29.8782C45.6214 28.382 47.3026 28.059 47.9467 29.7163C48.5908 31.3735 45.7134 33.4697 47.2105 33.7651C47.2823 33.7762 48.2062 33.8617 47.9467 34.6522C47.6872 35.4426 46.6511 35.8742 47.2556 36.2542C47.8602 36.6343 46.1652 37.7219 45.8303 37.1431C45.8275 36.7576 45.8339 36.3812 45.8339 36.3812V36.3812Z" fill="#2F2F2F"/>
<path d="M47.9514 29.7163C47.553 28.6939 46.7607 28.428 45.8497 28.7216C46.5574 28.7381 47.4233 28.9498 47.4334 29.8782C47.4499 31.449 45.3096 31.3625 45.7237 32.6922C46.1378 34.0218 44.9811 34.1599 44.774 33.4348C44.567 32.7096 43.5999 32.3416 42.6677 32.9829C41.7356 33.6243 40.5835 33.8442 39.0891 33.3299C40.9764 34.3476 42.7101 33.6979 43.4987 33.2811C43.6052 33.2241 43.7322 33.2201 43.8422 33.2703C43.9521 33.3205 44.0323 33.4191 44.059 33.5369C44.2385 34.3319 44.5992 35.7739 44.9121 36.0711C45.3492 36.4852 44.9811 35.127 44.9121 34.5509C44.843 33.9749 45.6721 34.0218 45.8322 36.3812C45.8322 36.3812 45.8258 36.7576 45.8322 37.1468C46.1672 37.7256 47.8622 36.6379 47.2576 36.2579C46.6531 35.8779 47.6892 35.4463 47.9487 34.6558C48.2082 33.8654 47.2834 33.7798 47.2125 33.7688C45.7181 33.467 48.5956 31.3745 47.9514 29.7163V29.7163Z" fill="#0D0416"/>
<path fill-rule="evenodd" clip-rule="evenodd" d="M45.8339 36.3812C45.672 34.0218 44.8429 33.9758 44.9138 34.551C44.9846 35.1261 45.3508 36.4833 44.9138 36.0711C44.6009 35.7739 44.2402 34.3319 44.0607 33.5369C44.034 33.4191 43.9538 33.3205 43.8438 33.2703C43.7339 33.2202 43.6069 33.2241 43.5003 33.2811C42.6096 33.7531 40.5143 34.5215 38.3519 32.8477C35.4993 30.6392 38.3979 26.7928 40.4932 27.898C42.5884 29.0031 42.5424 31.3745 44.0819 29.8782C45.6214 28.382 47.3026 28.059 47.9467 29.7163C48.5908 31.3735 45.7134 33.4697 47.2105 33.7651C47.2823 33.7762 48.2062 33.8617 47.9467 34.6522C47.6872 35.4426 46.6511 35.8742 47.2556 36.2542C47.8602 36.6343 46.1652 37.7219 45.8303 37.1431C45.8275 36.7576 45.8339 36.3812 45.8339 36.3812V36.3812Z" stroke="#1C1C1C" stroke-width="0.3"/>
<path d="M49.3005 12.4608C49.3012 9.50189 47.263 6.93261 44.3816 6.26004C41.5002 5.58746 38.5352 6.98892 37.2259 9.64235C35.9166 12.2958 36.6082 15.5015 38.895 17.3792C39.62 17.9627 40.0446 18.841 40.0516 19.7717V21.4363H45.8185V19.7983C45.8199 18.863 46.2411 17.9777 46.9659 17.3865C48.4452 16.1792 49.3025 14.3702 49.3005 12.4608V12.4608Z" fill="#F9B630"/>
<path opacity="0.58" d="M42.6861 6.1002C42.469 6.10862 42.2525 6.12828 42.0374 6.1591C43.0928 6.41951 46.8297 7.53938 47.4214 10.3772C48.1125 13.6899 44.2928 15.972 44.8449 18.0212C45.397 20.0705 40.3728 19.6895 40.0535 21.4342H45.8203V19.7981C45.8217 18.8628 46.2429 17.9775 46.9678 17.3863C49.0856 15.6535 49.8588 12.761 48.8882 10.2025C47.9176 7.64405 45.4204 5.99229 42.6861 6.1002V6.1002Z" fill="#FC7E1F"/>
<path fill-rule="evenodd" clip-rule="evenodd" d="M49.3005 12.4608C49.3012 9.50189 47.263 6.93261 44.3816 6.26004C41.5002 5.58746 38.5352 6.98892 37.2259 9.64235C35.9166 12.2958 36.6082 15.5015 38.895 17.3792C39.62 17.9627 40.0446 18.841 40.0516 19.7717V21.4363H45.8185V19.7983C45.8199 18.863 46.2411 17.9777 46.9659 17.3865C48.4452 16.1792 49.3025 14.3702 49.3005 12.4608V12.4608Z" stroke="#1C1C1C" stroke-width="0.3"/>
<path d="M40.0515 21.4346H45.8183V22.8544C45.8183 23.611 45.5178 24.3365 44.9828 24.8715C44.4479 25.4065 43.7223 25.707 42.9657 25.707H42.9115C42.1549 25.707 41.4293 25.4065 40.8944 24.8715C40.3594 24.3365 40.0589 23.611 40.0589 22.8544V21.4346H40.0515Z" fill="#BABABA"/>
<path opacity="0.65" d="M43.2666 22.4183C43.4396 22.7173 44.4408 22.7293 44.4757 23.0173C44.5107 23.3053 43.3356 23.2768 43.3126 23.3541C43.2896 23.4314 44.1758 24.1464 43.6117 24.2899C43.0476 24.4335 42.4375 24.8356 42.7485 25.3306C43.0439 25.8009 41.5827 25.3444 41.4336 25.2966C41.8771 25.567 42.3864 25.7103 42.9059 25.7107H42.9602C43.7167 25.7107 44.4423 25.4101 44.9773 24.8752C45.5122 24.3402 45.8128 23.6147 45.8128 22.8581V21.4346H44.1868C43.931 21.5625 43.7718 21.6573 43.7718 21.6573C43.7718 21.6573 43.0927 22.1192 43.2666 22.4183V22.4183Z" fill="#898989"/>
<path fill-rule="evenodd" clip-rule="evenodd" d="M40.0518 21.4346H45.8186V22.8544C45.8186 23.611 45.518 24.3365 44.9831 24.8715C44.4481 25.4065 43.7225 25.707 42.966 25.707H42.9117C42.1552 25.707 41.4296 25.4065 40.8946 24.8715C40.3597 24.3365 40.0591 23.611 40.0591 22.8544V21.4346H40.0518Z" stroke="#1C1C1C" stroke-width="0.3"/>
<path d="M39.5078 22.4181H46.3623" stroke="#1C1C1C" stroke-width="0.3" stroke-linecap="round"/>
<path d="M39.5078 23.3541H46.3623" stroke="#1C1C1C" stroke-width="0.3" stroke-linecap="round"/>
<path d="M39.5078 24.2897H46.3623" stroke="#1C1C1C" stroke-width="0.3" stroke-linecap="round"/>
<path d="M42.9347 21.6673C44.5274 21.6673 45.8185 21.563 45.8185 21.4345C45.8185 21.3059 44.5274 21.2017 42.9347 21.2017C41.3419 21.2017 40.0508 21.3059 40.0508 21.4345C40.0508 21.563 41.3419 21.6673 42.9347 21.6673Z" fill="#1C1C1C" stroke="#1C1C1C" stroke-width="0.3"/>
<path d="M42.6025 21.4345L40.6296 13.1464C40.6296 13.1464 42.0283 11.6262 43.0304 12.4728C44.0325 13.3194 43.289 13.9451 42.8059 13.5954C42.3228 13.2458 44.2561 11.5407 45.5168 12.9219C45.1192 14.8727 43.531 21.3821 43.531 21.3821" stroke="#1C1C1C" stroke-width="0.3"/>
<path d="M42.2416 35.3071C42.2416 35.3071 41.6426 37.2165 41.9187 37.3095C42.1947 37.4024 42.6023 37.2377 42.6023 37.2377" fill="#B3F2FF"/>
<path d="M42.2416 35.3071C42.2416 35.3071 41.6426 37.2165 41.9187 37.3095C42.1947 37.4024 42.6023 37.2377 42.6023 37.2377" stroke="#1C1C1C" stroke-width="0.3" stroke-linecap="round"/>
<path opacity="0.82" d="M43.2713 55.5449C43.0644 55.5453 42.8589 55.5795 42.663 55.6461C43.1576 56.0136 43.2755 56.7051 42.9307 57.2157C42.5859 57.7263 41.9003 57.8752 41.3748 57.5537C41.4349 58.5862 42.3105 59.3805 43.344 59.3402C44.3775 59.2998 45.1884 58.4396 45.1679 57.4055C45.1473 56.3715 44.3028 55.5442 43.2685 55.5449H43.2713Z" fill="white"/>
<path d="M41.6104 38.7305C41.6104 38.7305 42.8867 38.8105 43.3937 38.4194Z" fill="#B3F2FF"/>
<path d="M41.6104 38.7305C41.6104 38.7305 42.8867 38.8105 43.3937 38.4194" stroke="#1C1C1C" stroke-width="0.3" stroke-linecap="round"/>
<path d="M50.7139 14.545H55.6175" stroke="#1C1C1C" stroke-width="0.3" stroke-linecap="round"/>
<path d="M49.5193 7.34554L53.4402 4.40186" stroke="#1C1C1C" stroke-width="0.3" stroke-linecap="round"/>
<path d="M52.9157 22.6731L48.9939 19.7285" stroke="#1C1C1C" stroke-width="0.3" stroke-linecap="round"/>
<path d="M34.8939 14.545H29.9902" stroke="#1C1C1C" stroke-width="0.3" stroke-linecap="round"/>
<path d="M36.0884 7.34554L32.1675 4.40186" stroke="#1C1C1C" stroke-width="0.3" stroke-linecap="round"/>
<path d="M32.6919 22.6731L36.6137 19.7285" stroke="#1C1C1C" stroke-width="0.3" stroke-linecap="round"/>
<path d="M42.8656 4.8057V0.869141" stroke="#1C1C1C" stroke-width="0.3" stroke-linecap="round"/>
<path d="M43.3918 38.0391C43.3918 38.0391 43.3467 38.4761 43.5758 38.6602Z" fill="#B3F2FF"/>
<path d="M43.3918 38.0391C43.3918 38.0391 43.3467 38.4761 43.5758 38.6602" stroke="#1C1C1C" stroke-width="0.3" stroke-linecap="round"/>
<path opacity="0.53" d="M60.8708 73.4361C60.9315 73.3864 60.9913 73.3367 61.0493 73.287C61.0852 73.2566 61.1192 73.2263 61.1533 73.195C61.2039 73.1499 61.2536 73.1029 61.3023 73.0606L61.4063 72.9631C61.4514 72.9207 61.4983 72.8784 61.537 72.8361L61.6391 72.7339C61.6787 72.6935 61.7164 72.6521 61.7551 72.6116C61.7937 72.5711 61.8204 72.5416 61.8517 72.5067C61.883 72.4717 61.9189 72.4294 61.952 72.3907C62.0192 72.3134 62.0836 72.2352 62.1443 72.1579L62.2069 72.0788C62.2428 72.0309 62.2768 71.9868 62.3109 71.9361L62.3652 71.8607C62.3992 71.811 62.4314 71.7622 62.4627 71.7135L62.5059 71.6463C62.5391 71.5938 62.5704 71.5423 62.598 71.4908L62.6274 71.4392C62.6596 71.3831 62.6909 71.3261 62.7194 71.269L62.7249 71.258C62.8593 71.0027 62.9684 70.7348 63.0507 70.4583C62.0219 70.8724 60.7199 71.1567 59.0755 71.2488C52.0535 71.6426 43.4765 66.4371 35.7828 64.5921C31.6033 63.2422 27.675 63.4474 25.4518 64.1688C24.078 65.4304 23.7688 66.3773 25.5024 65.378C29.0498 63.3388 31.2785 64.3087 31.7965 64.7918C32.3146 65.2749 32.8446 65.712 33.3746 66.1445C38.0547 69.9522 43.0449 72.2435 47.7553 73.3864L47.7857 73.3937C47.9173 73.4259 48.0489 73.4563 48.1805 73.4857L48.2375 73.4986L48.6129 73.5814L48.6866 73.598L49.0482 73.6725L49.1347 73.6891C49.2516 73.713 49.3684 73.7351 49.4844 73.7572L49.5764 73.7747L49.9178 73.8354L50.0181 73.8529L50.353 73.9081L50.4579 73.9238L50.7892 73.9734L50.8923 73.9882C51.0027 74.0038 51.1131 74.0195 51.2226 74.0333L51.322 74.0461L51.6542 74.0875L51.7462 74.0977L52.0848 74.1345L52.1575 74.1418L52.5127 74.175H52.5412C53.0737 74.2216 53.5994 74.2538 54.1184 74.2716H54.1654L54.4552 74.2799H54.5822H54.8399H54.9945H55.4039H55.6312H55.8088L56.0269 74.2734L56.2109 74.267L56.4207 74.2578L56.6048 74.2486L56.8081 74.2366L56.9986 74.2247L57.1955 74.2099L57.3888 74.1952L57.5793 74.1777L57.7743 74.1593L57.9584 74.1409L58.1544 74.1188L58.3384 74.0977L58.5344 74.0728L58.7093 74.0498L58.908 74.0213L59.0764 73.9964C59.1445 73.9863 59.2117 73.9744 59.2798 73.9633L59.438 73.9376L59.6497 73.9007L59.7951 73.8741L60.0288 73.829L60.1466 73.806C60.2625 73.782 60.3785 73.7581 60.4935 73.7324C60.5929 73.6578 60.6886 73.5824 60.7824 73.5078L60.8708 73.4361Z" fill="#42DFFF"/>
<path d="M37.7115 30.6032C37.7115 30.6032 37.6774 29.2561 38.4026 28.7895C39.1277 28.323 37.971 29.9296 38.5746 29.9471C39.1783 29.9646 37.6425 31.7424 37.7115 30.6032Z" fill="white"/>
<path d="M38.8958 29.0667C38.8958 29.0667 39.2482 28.4649 39.5399 28.705C39.8316 28.9452 38.7844 29.6022 38.8958 29.0667Z" fill="white"/>
<path d="M39.0889 41.3805C39.0889 41.3805 37.243 42.6586 37.1565 43.6432C37.07 44.6278 38.2966 42.2261 38.5367 42.5114C38.7769 42.7967 39.5904 40.9931 39.0889 41.3805V41.3805Z" fill="white"/>
<path d="M36.8013 43.8779C36.8013 43.8779 36.1747 44.5027 36.2097 44.7622C36.2446 45.0217 37.1538 44.1899 36.8013 43.8779Z" fill="white"/>
<path d="M36.1923 53.7231C36.1923 53.7231 35.1212 53.5851 35.1386 54.2586C35.1561 54.9322 35.6539 55.5368 35.5003 56.1754C35.3466 56.814 36.5033 56.3705 36.1232 54.9433C35.7432 53.516 36.9348 54.2246 36.1923 53.7231V53.7231Z" fill="white"/>
<path d="M37.4179 53.7922C37.4179 53.7922 36.6063 53.5337 36.7277 53.8787C36.8492 54.2238 37.8494 54.3628 37.4179 53.7922Z" fill="white"/>
<path d="M25.3137 59.6631C25.3137 59.6631 21.1729 59.6631 19.8579 60.6992C18.543 61.7353 21.3109 61.3213 22.0434 60.6992C22.7758 60.0772 26.6784 59.802 25.3137 59.6631Z" fill="white"/>
<path d="M19.3895 61.839C18.9646 61.5894 18.4224 61.6763 18.0967 62.046C17.4746 62.6846 20.3198 62.4601 19.3895 61.839Z" fill="white"/>
<path d="M29.7398 62.432C29.7398 62.432 31.4882 61.544 31.7891 62.0805C32.09 62.6169 29.3947 62.8921 29.7398 62.432Z" fill="white"/>
<path d="M32.3412 62.0851C32.3412 62.0851 32.9633 61.9305 32.8252 62.4136C32.6872 62.8967 31.9041 62.2121 32.3412 62.0851Z" fill="white"/>
<path d="M53.7982 56.3798C53.7982 56.3798 55.6385 56.2187 55.6385 56.7018C55.6385 57.1849 53.8488 56.6393 54.0061 57.2079C54.1635 57.7766 52.878 56.6558 53.7982 56.3798Z" fill="white"/>
<path d="M37.867 61.7886C37.867 61.7886 37.1078 61.7886 37.0388 62.2864C36.9698 62.7842 39.0393 61.7481 37.8007 61.9082" fill="white"/>
<path d="M16.8849 63.9253C16.675 64.7332 16.5812 65.7776 16.9852 66.8266" stroke="white" stroke-width="0.3" stroke-linecap="round"/>
<path d="M17.1334 63.167C17.092 63.2701 17.0506 63.3805 17.011 63.5001" stroke="white" stroke-width="0.3" stroke-linecap="round"/>
<path d="M17.4922 62.4292C17.4149 62.5591 17.3446 62.693 17.2815 62.8304" stroke="white" stroke-width="0.3" stroke-linecap="round"/>
<path d="M31.1633 53.1665C31.097 53.3505 31.0363 53.5346 30.9792 53.7122" stroke="white" stroke-width="0.3" stroke-linecap="round"/>
<path d="M34.6418 46.9019C33.6775 48.3042 32.3266 50.4151 31.4893 52.3484" stroke="white" stroke-width="0.3" stroke-linecap="round"/>
<path d="M35.1525 46.1729L34.939 46.4756" stroke="white" stroke-width="0.3" stroke-linecap="round"/>
<path d="M35.7902 45.3032C35.7902 45.3032 35.6742 45.4541 35.4773 45.7237" stroke="white" stroke-width="0.3" stroke-linecap="round"/>
<path d="M46.4045 29.1929C46.4922 29.1583 46.5877 29.1484 46.6806 29.1644" stroke="white" stroke-width="0.3" stroke-linecap="round"/>
<path d="M41.4316 29.3374C41.7349 29.6796 41.988 30.0632 42.1834 30.4766C42.903 31.9489 44.783 30.1416 45.947 29.4239" stroke="white" stroke-width="0.3" stroke-linecap="round"/>
<path d="M40.9524 28.8975C41.026 28.9527 41.1024 29.0152 41.1806 29.0861" stroke="white" stroke-width="0.3" stroke-linecap="round"/>
<path d="M40.0515 28.4731C40.1895 28.4968 40.3235 28.5392 40.45 28.5992" stroke="white" stroke-width="0.3" stroke-linecap="round"/>
<path d="M41.9719 43.4766C42.1081 43.9155 42.3878 44.3967 42.9547 44.3443" stroke="white" stroke-width="0.3" stroke-linecap="round"/>
<path d="M41.8457 42.8159C41.8543 42.928 41.8694 43.0396 41.8908 43.1499" stroke="white" stroke-width="0.3" stroke-linecap="round"/>
<path d="M40.2502 53.712H44.1868" stroke="white" stroke-width="0.3" stroke-linecap="round"/>
<path d="M38.9639 53.712H39.585" stroke="white" stroke-width="0.3" stroke-linecap="round"/>
<path d="M38.051 53.712H38.4798" stroke="white" stroke-width="0.3" stroke-linecap="round"/>
<path d="M40.6128 61.7887H44.7739" stroke="white" stroke-width="0.3" stroke-linecap="round"/>
<path d="M39.4673 61.7887H39.9623" stroke="white" stroke-width="0.3" stroke-linecap="round"/>
<path d="M38.4429 61.7887H38.8956" stroke="white" stroke-width="0.3" stroke-linecap="round"/>
<path d="M57.3787 56.9658C58.0964 57.2124 58.9991 57.61 59.692 58.1952" stroke="white" stroke-width="0.3" stroke-linecap="round"/>
<path d="M56.1694 56.6299C56.1694 56.6299 56.4013 56.6741 56.7611 56.7744" stroke="white" stroke-width="0.3" stroke-linecap="round"/>
<path d="M60.4916 62.5319C60.4916 62.5319 61.3998 62.4693 61.9786 61.0762C62.5574 59.683 62.793 62.4049 61.7799 63.2423C60.7667 64.0797 59.6726 62.9671 60.4916 62.5319V62.5319Z" fill="white"/>
<path d="M62.7397 62.3927C62.7397 62.3927 62.241 63.2503 62.4959 63.3074C62.7508 63.3644 63.2274 62.2427 62.7397 62.3927Z" fill="white"/>
<path d="M59.0017 63.7971C59.2371 63.7326 59.4667 63.6485 59.6882 63.5459" stroke="white" stroke-width="0.3"/>
<path d="M57.5129 64.0723C57.8083 64.0383 58.0936 63.9959 58.3641 63.9453" stroke="white" stroke-width="0.3"/>
<path d="M52.1123 64.0938C53.1521 64.1683 55.0928 64.2658 56.8494 64.1342" stroke="white" stroke-width="0.3"/>
<path d="M51.3523 64.0321L51.6468 64.0579" stroke="white" stroke-width="0.3"/>
<path d="M26.2605 64.2124C26.1483 64.2971 26.0342 64.3866 25.9182 64.4811" stroke="white" stroke-width="0.3"/>
<path d="M28.8876 62.7998C28.8876 62.7998 27.9803 63.0022 26.6387 63.9372" stroke="white" stroke-width="0.3"/>
<path d="M60.8882 55.1611C60.9747 55.4206 61.0596 55.6896 61.1431 55.9681" stroke="#1C1C1C" stroke-width="0.3"/>
<path d="M60.3767 53.7681C60.454 53.9589 60.5304 54.1558 60.6058 54.3588" stroke="#1C1C1C" stroke-width="0.3"/>
<path d="M56.7612 48.4741C56.7612 48.4741 58.5574 49.5342 60.1852 53.3079" stroke="#1C1C1C" stroke-width="0.3"/>
<path d="M45.5256 43.4097C45.4989 43.5229 45.4667 43.6397 45.4336 43.7603" stroke="#1C1C1C" stroke-width="0.3"/>
<path d="M45.6031 41.6465C45.6031 41.6465 45.7291 42.1369 45.6178 42.9292" stroke="#1C1C1C" stroke-width="0.3"/>
<path d="M33.6377 58.9689C33.7088 58.8909 33.7758 58.8092 33.8383 58.7241" stroke="#1C1C1C" stroke-width="0.3"/>
<path d="M33.116 59.421C33.208 59.3566 33.3 59.2885 33.381 59.2158" stroke="#1C1C1C" stroke-width="0.3"/>
<path d="M29.3948 60.4966C29.3948 60.4966 31.1799 60.457 32.5998 59.731" stroke="#1C1C1C" stroke-width="0.3"/>
<path d="M67.659 68.4912C67.3287 69.3663 66.6229 70.3086 65.2178 71.111" stroke="#1C1C1C" stroke-width="0.3"/>
<path d="M67.9101 66.8506C67.9247 67.1273 67.9114 67.4047 67.8705 67.6788" stroke="#1C1C1C" stroke-width="0.3"/>
<path d="M67.658 65.6323C67.7271 65.8048 67.7807 65.9831 67.8181 66.1651" stroke="#1C1C1C" stroke-width="0.3"/>
<path d="M66.991 61.0229C66.991 61.0229 69.9356 62.878 70.1675 66.1659" stroke="#1C1C1C" stroke-width="0.3"/>
<path d="M27.2131 47.7207C27.2131 47.7207 23.4321 51.5257 24.0302 56.4625" stroke="#1C1C1C" stroke-width="0.3"/>
<path d="M14.5908 64.6611C14.5908 64.6611 14.8494 69.1277 18.0121 70.831" stroke="#1C1C1C" stroke-width="0.3"/>
<path d="M53.2717 42.9834C53.2717 42.9834 55.7093 44.5431 56.1694 45.3032" stroke="#1C1C1C" stroke-width="0.3"/>
<path d="M42.9345 6.73974C42.9345 6.73974 40.4076 6.39467 38.8958 8.57C37.3839 10.7453 39.0586 10.2779 39.4727 9.4497C39.8868 8.62153 41.0094 7.29094 42.8655 7.46393C44.7215 7.63693 43.5639 6.75355 42.9345 6.73974Z" fill="white"/>
<path d="M38.5057 10.867C38.5057 10.867 37.8155 10.4354 37.4695 11.316C37.1236 12.1966 37.7631 12.7313 38.1266 12.5592C38.49 12.3871 39.0072 10.798 38.5057 10.867Z" fill="white"/>
<path d="M40.6479 19.3535C40.6571 19.5376 40.6534 19.6461 40.6534 19.6461" stroke="white" stroke-width="0.3" stroke-linecap="round"/>
<path d="M38.1328 15.6001C38.3892 16.0376 38.775 16.3849 39.237 16.5939C40.1508 17.0089 40.4784 18.0515 40.5952 18.8024" stroke="white" stroke-width="0.3" stroke-linecap="round"/>
<path d="M37.7454 14.6094C37.7823 14.7698 37.8294 14.9278 37.8862 15.0824" stroke="white" stroke-width="0.3" stroke-linecap="round"/>
<path d="M37.636 13.5952C37.6314 13.7596 37.6384 13.9241 37.6571 14.0875" stroke="white" stroke-width="0.3" stroke-linecap="round"/>
<path d="M40.4142 21.7622C40.4142 21.7622 40.1897 21.9527 40.2504 22.1855C40.3111 22.4183 40.7942 21.9609 40.9498 22.0732C41.1053 22.1855 41.1043 21.6416 40.4142 21.7622V21.7622Z" fill="white"/>
<path d="M40.2671 22.673C40.2671 22.673 40.1981 23.1432 40.4226 23.169C40.6471 23.1948 40.4833 22.6436 40.2671 22.673Z" fill="white"/>
<path d="M41.2425 21.9001C41.2291 21.9611 41.242 22.0249 41.2781 22.0759C41.3142 22.1268 41.3701 22.1602 41.432 22.1678C41.6658 22.2028 41.5885 21.8918 41.2425 21.9001Z" fill="white"/>
<path d="M40.53 23.6704C40.53 23.6704 41.0444 25.4574 43.2906 25.3102" stroke="white" stroke-width="0.3" stroke-linecap="round"/>
<path d="M44.218 35.2478C44.2242 35.0945 43.899 34.957 43.4917 34.9408C43.0844 34.9246 42.7493 35.0358 42.7432 35.1891C42.7371 35.3425 43.0623 35.4799 43.4696 35.4962C43.8768 35.5124 44.2119 35.4012 44.218 35.2478Z" fill="white" stroke="#161616" stroke-width="0.3"/>
<path d="M43.4903 35.4435C43.6351 35.4435 43.7525 35.326 43.7525 35.1812C43.7525 35.0364 43.6351 34.9189 43.4903 34.9189C43.3454 34.9189 43.228 35.0364 43.228 35.1812C43.228 35.326 43.3454 35.4435 43.4903 35.4435Z" fill="#161616"/>
<path d="M41.8494 35.1673C41.8555 35.0139 41.5303 34.8765 41.123 34.8602C40.7158 34.844 40.3807 34.9552 40.3746 35.1086C40.3685 35.2619 40.6937 35.3994 41.1009 35.4156C41.5082 35.4318 41.8433 35.3206 41.8494 35.1673Z" fill="white" stroke="#161616" stroke-width="0.3"/>
<path d="M41.1089 35.3653C41.2538 35.3653 41.3712 35.2479 41.3712 35.1031C41.3712 34.9582 41.2538 34.8408 41.1089 34.8408C40.9641 34.8408 40.8467 34.9582 40.8467 35.1031C40.8467 35.2479 40.9641 35.3653 41.1089 35.3653Z" fill="#161616"/>
</svg>
