<svg width="137" height="212" viewBox="0 0 137 212" fill="none" xmlns="http://www.w3.org/2000/svg">
<path d="M26.1283 165.217C24.9282 168.406 27.7722 172.851 33.6113 177.763C36.8516 172.321 39.69 166.65 42.1037 160.795C33.345 160.328 27.4368 161.741 26.1283 165.217Z" fill="#191919" stroke="#191919" stroke-width="0.3" stroke-linecap="round"/>
<path d="M123.122 190.021C120.566 197.055 117.414 203.857 113.699 210.353C125.759 211.892 134.143 210.715 135.728 206.493C137.25 202.472 132.305 196.459 123.122 190.021Z" fill="#191919" stroke="#191919" stroke-width="0.3" stroke-linecap="round"/>
<path d="M95.5735 142.957C97.3193 134.303 82.5505 137.368 86.7885 116.934L74.6039 76.5928C74.6039 76.5928 46.6117 78.2169 38.3725 104.384C34.9072 115.392 31.7476 120.955 29.1864 122.717C31.5109 128.635 37.3631 147.635 23.9917 163.042C24.5112 164.357 45.1848 174.197 56.1726 160.708C67.1604 147.218 95.5735 142.957 95.5735 142.957Z" fill="#B3F2FF"/>
<path opacity="0.52" d="M55.738 98.8918C45.4373 103.123 49.2314 112.766 47.4955 130.984C45.7595 149.202 37.3033 158.306 29.4915 156.681C29.1365 156.605 28.8077 156.526 28.5052 156.445C27.2552 158.808 25.7372 161.02 23.9812 163.037C24.3659 164.007 35.837 169.671 46.2198 167.031C68.6129 153.006 64.6676 95.2227 55.738 98.8918Z" fill="#533ADB"/>
<path fill-rule="evenodd" clip-rule="evenodd" d="M95.5735 142.957C97.3193 134.303 82.5505 137.368 86.7885 116.934L74.6039 76.5928C74.6039 76.5928 46.6117 78.2169 38.3725 104.384C34.9072 115.392 31.7476 120.955 29.1864 122.717C31.5109 128.635 37.3631 147.635 23.9917 163.042C24.5112 164.357 45.1848 174.197 56.1726 160.708C67.1604 147.218 95.5735 142.957 95.5735 142.957V142.957Z" stroke="#191919" stroke-width="0.3"/>
<path d="M127.321 122.843C114.021 70.2184 77.9412 75.7287 77.9412 75.7287C50.1824 79.4866 62.8174 91.658 51.9151 99.2233C37.6033 109.139 36.012 127.34 47.2892 133.992C48.1604 142.596 45.6255 152.186 42.1273 160.797C39.7094 166.653 36.8667 172.324 33.6218 177.765C42.2687 185.067 57.4419 193.405 75.5313 200.218C89.6852 205.55 103.116 209.003 113.709 210.357C117.423 203.861 120.576 197.059 123.132 190.025C129.379 172.837 133.959 149.102 127.321 122.843Z" fill="#C6BDF3"/>
<path opacity="0.52" d="M75.521 200.218C89.6749 205.55 103.106 209.003 113.699 210.357C117.413 203.861 120.565 197.059 123.122 190.025C129.368 172.837 133.971 149.102 127.32 122.843C114.021 70.2184 77.9408 75.7287 77.9408 75.7287C77.2339 75.824 76.5599 75.926 75.9057 76.0345C73.6535 83.9843 72.2299 94.9557 72.2299 94.9557C72.2299 94.9557 87.048 95.679 88.4946 85.5592C90.0826 76.0246 133.383 102.475 126.659 160.712C123.842 195.723 100.419 171.653 97.3979 184.015C94.6 195.404 38.941 167.576 33.7891 177.894C42.4327 185.166 57.5368 193.445 75.521 200.218Z" fill="#533ADB"/>
<path d="M51.9073 99.2106C37.5955 109.127 36.0042 127.328 47.2814 133.979C48.1526 142.583 45.6177 152.174 42.1195 160.784C39.7016 166.64 36.8589 172.311 33.614 177.753C42.2609 185.055 57.4341 193.393 75.5235 200.205C89.6774 205.538 103.108 208.99 113.701 210.344C117.415 203.848 120.568 197.046 123.124 190.013C129.371 172.824 133.974 149.09 127.323 122.83C114.024 70.2057 77.9433 75.716 77.9433 75.716C73.6034 76.3045 70.2531 77.0969 67.6459 78.0438" stroke="#191919" stroke-width="0.3" stroke-linecap="round"/>
<path d="M65.5105 78.4199C65.5105 78.4199 60.8714 98.7155 71.366 98.8897" stroke="#191919" stroke-width="0.3" stroke-linecap="round"/>
<path d="M20.823 53.4448C20.823 53.4448 24.1864 50.1932 26.4616 51.8009C28.7367 53.4087 33.9511 67.8059 35.9962 68.3714C38.0412 68.9369 45.317 58.8368 47.9177 58.416C50.5183 57.9951 53.4346 59.8494 54.8714 61.4374C56.3081 63.0254 40.9772 75.8676 34.3654 74.7333C27.7537 73.599 20.823 53.4448 20.823 53.4448H20.823Z" fill="white" stroke="#191919" stroke-width="0.3"/>
<path d="M60.1478 56.2697C60.1478 56.2697 52.1946 75.8551 67.953 75.3389C67.953 81.4837 65.7863 92.8332 72.2271 94.9275C78.6679 97.0218 91.9539 73.261 70.4912 51.4859C67.131 47.0146 60.1478 56.2697 60.1478 56.2697Z" fill="#D1F3FF" stroke="#191919" stroke-width="0.3"/>
<path d="M58.4453 63.4773C59.5526 63.451 60.4422 63.0927 60.4324 62.677C60.4225 62.2613 59.5168 61.9456 58.4095 61.9719C57.3022 61.9982 56.4125 62.3565 56.4224 62.7722C56.4323 63.1879 57.3379 63.5036 58.4453 63.4773Z" fill="white" stroke="#191919" stroke-width="0.3"/>
<path d="M57.6888 62.0566C56.9425 62.1849 56.4132 62.4676 56.4197 62.7898C56.4263 63.112 56.9688 63.3718 57.7348 63.4474C58.1524 63.329 58.445 63.0496 58.4351 62.7306C58.4253 62.4117 58.1097 62.1553 57.6888 62.0566V62.0566Z" fill="#191919"/>
<path d="M60.1594 65.4265L62.5398 65.1405L67.9449 64.6934" stroke="#191919" stroke-width="0.3"/>
<path d="M57.5443 66.789C59.0355 66.6656 60.2026 66.0624 60.1513 65.4417C60.0999 64.821 58.8495 64.4179 57.3584 64.5413C55.8672 64.6646 54.7001 65.2678 54.7514 65.8885C54.8028 66.5092 56.0532 66.9124 57.5443 66.789Z" fill="white" stroke="#191919" stroke-width="0.3"/>
<path d="M57.8851 67.1706C59.3762 67.0472 60.5072 66.0068 60.4112 64.8469C60.3153 63.6869 59.0287 62.8466 57.5376 62.97C56.0464 63.0933 54.9155 64.1337 55.0114 65.2937C55.1074 66.4536 56.394 67.2939 57.8851 67.1706Z" fill="#87C5F9" stroke="#191919" stroke-width="0.3"/>
<path d="M72.6511 37.9546C72.6511 37.9546 64.3034 33.5095 65.6054 23.2089C66.9074 12.9082 77.1127 12.5827 83.7113 17.6788C90.3098 22.7749 84.6812 10.5279 88.6429 5.42521C92.6047 0.32256 101.061 -1.62053 102.146 6.51018C103.231 14.6409 105.289 4.66573 110.928 5.7507C116.566 6.83568 117.977 16.4853 108.001 18.9808C100.515 20.8515 107.344 30.4716 101.603 34.9726C95.8629 39.4736 91.6283 33.5095 91.1943 39.1481C90.7603 44.7867 88.5903 48.1468 80.4596 47.7128C72.3289 47.2788 72.6511 37.9546 72.6511 37.9546Z" fill="#2F2F2F"/>
<path opacity="0.58" d="M110.927 5.75407C109.108 5.40557 107.665 6.2045 106.505 7.17769C107.307 8.14101 109.355 8.87419 109.687 11.9351C110.23 16.9227 96.1349 11.2776 98.7355 19.9573C101.336 28.6371 95.9179 30.807 89.6283 27.3318C83.3388 23.8566 85.0747 39.2599 79.765 34.1639C74.4552 29.0678 71.6408 36.3272 71.5455 36.4127C71.4916 36.6522 71.4532 36.8949 71.4304 37.1393C71.8209 37.4403 72.2318 37.7138 72.6601 37.958C72.6601 37.958 72.3313 47.2822 80.4686 47.7161C88.6058 48.1501 90.7692 44.79 91.2032 39.1679C91.6372 33.5458 95.8653 39.4967 101.612 34.9924C107.359 30.4881 100.524 20.8713 108.01 19.0006C117.976 16.4887 116.565 6.83904 110.927 5.75407Z" fill="#0D0416"/>
<path fill-rule="evenodd" clip-rule="evenodd" d="M72.6511 37.9546C72.6511 37.9546 64.3034 33.5095 65.6054 23.2089C66.9074 12.9082 77.1127 12.5827 83.7113 17.6788C90.3098 22.7749 84.6812 10.5279 88.6429 5.42521C92.6047 0.32256 101.061 -1.62053 102.146 6.51018C103.231 14.6409 105.289 4.66573 110.928 5.7507C116.566 6.83568 117.977 16.4853 108.001 18.9808C100.515 20.8515 107.344 30.4716 101.603 34.9726C95.8629 39.4736 91.6283 33.5095 91.1943 39.1481C90.7603 44.7867 88.5903 48.1468 80.4596 47.7128C72.3289 47.2788 72.6511 37.9546 72.6511 37.9546Z" stroke="#191919" stroke-width="0.3" stroke-linecap="round"/>
<path d="M39.5719 99.6514C39.5719 99.6514 59.703 105.04 66.6107 95.0814C65.2791 82.8804 57.5429 57.4329 51.6874 60.8325C45.8318 64.232 37.665 70.5183 33.907 67.6974C30.1491 64.8765 22.3998 50.6403 20.8216 53.458C19.2435 56.2756 23.534 95.0814 39.5719 99.6514Z" fill="#FEB542"/>
<path d="M66.6109 95.0879C65.2793 82.8869 57.5431 57.4394 51.6876 60.839L50.8755 61.319C52.5851 62.5486 54.1238 65.0835 52.3747 70.2717C49.2316 79.5958 51.8322 82.3083 56.4976 83.5017C60.9756 84.6459 47.9494 101.006 29.4917 90.6395C32.1548 95.0978 35.4788 98.4941 39.5721 99.6579C39.5721 99.6579 59.7032 105.047 66.6109 95.0879Z" fill="#BF8832"/>
<path d="M65.8274 62.551C66.9305 62.451 67.7943 62.0342 67.7568 61.6201C67.7192 61.206 66.7946 60.9513 65.6915 61.0513C64.5883 61.1514 63.7245 61.5681 63.7621 61.9823C63.7996 62.3964 64.7243 62.651 65.8274 62.551Z" fill="white" stroke="#191919" stroke-width="0.3"/>
<path d="M64.9869 61.1533C64.2471 61.3276 63.7375 61.6465 63.7671 61.9687C63.7967 62.2909 64.3556 62.5112 65.1118 62.5506C65.5195 62.406 65.7924 62.1068 65.7694 61.7879C65.7463 61.4689 65.4143 61.2388 64.9869 61.1533Z" fill="#191919"/>
<path fill-rule="evenodd" clip-rule="evenodd" d="M39.5719 99.6514C39.5719 99.6514 59.703 105.04 66.6107 95.0814C65.2791 82.8804 57.5429 57.4329 51.6874 60.8325C45.8318 64.232 37.665 70.5183 33.907 67.6974C30.1491 64.8765 22.3998 50.6403 20.8216 53.458C19.2435 56.2756 23.534 95.0814 39.5719 99.6514V99.6514Z" stroke="#191919" stroke-width="0.3"/>
<path d="M74.8768 46.0899C77.9001 46.0899 80.3509 43.6391 80.3509 40.6158C80.3509 37.5925 77.9001 35.1416 74.8768 35.1416C71.8535 35.1416 69.4026 37.5925 69.4026 40.6158C69.4026 43.6391 71.8535 46.0899 74.8768 46.0899Z" fill="#21C3E8"/>
<path opacity="0.83" d="M75.285 35.1621C76.2028 36.3015 76.6915 37.7269 76.6659 39.1897C76.5344 41.9711 71.5764 37.4964 69.4854 39.6927C69.4303 39.9976 69.4017 40.3067 69.3999 40.6166C69.3999 40.7185 69.3999 40.8171 69.4163 40.919C71.2312 41.8035 76.0445 42.4446 78.2934 44.8841C80.0458 43.4773 80.7597 41.142 80.0934 38.9958C79.4271 36.8496 77.5162 35.3292 75.2752 35.1621H75.285Z" fill="#1790BA"/>
<path fill-rule="evenodd" clip-rule="evenodd" d="M74.8768 46.09C77.9001 46.09 80.3509 43.6391 80.3509 40.6158C80.3509 37.5925 77.9001 35.1416 74.8768 35.1416C71.8535 35.1416 69.4026 37.5925 69.4026 40.6158C69.4026 43.6391 71.8535 46.09 74.8768 46.09Z" stroke="#191919" stroke-width="0.3" stroke-linecap="round"/>
<path d="M65.5511 66.4176C67.0423 66.2943 68.1732 65.2539 68.0773 64.0939C67.9813 62.934 66.6947 62.0937 65.2036 62.217C63.7125 62.3404 62.5815 63.3808 62.6774 64.5407C62.7734 65.7007 64.06 66.541 65.5511 66.4176Z" fill="#87C5F9" stroke="#191919" stroke-width="0.3"/>
<path d="M29.1868 122.727C25.6557 125.153 23.2687 120.363 22.7591 112.637C21.8912 99.2982 34.7924 86.5777 32.9513 85.1673C31.1101 83.7568 27.4508 87.2945 27.4508 87.2945C27.1812 86.821 31.4159 73.4562 28.5424 72.1706C26.642 72.1706 26.0108 80.0318 26.0108 80.0318C26.0108 80.0318 25.5373 68.9749 24.3373 68.7579C23.1372 68.5409 23.6271 80.0318 23.6271 80.0318C23.6271 80.0318 22.2166 70.9246 20.4281 70.2736C18.6395 69.6226 20.8621 79.8707 20.8621 79.8707C20.8621 79.8707 18.6362 75.0442 17.5546 75.6426C16.4729 76.2409 19.9941 82.4713 16.7951 85.5059C13.5961 88.5406 -22.7242 134.369 23.9921 163.065C37.3635 147.639 31.5112 128.645 29.1868 122.727Z" fill="#D1F3FF"/>
<path d="M23.9914 163.042C25.7474 161.025 27.2654 158.814 28.5154 156.45C22.3442 154.737 26.3225 152.133 13.8289 143.818C-4.60578 132.758 8.41716 97.6279 8.41716 97.6279C-0.535494 113.847 -9.05416 142.743 23.9914 163.042Z" fill="#79DCFF"/>
<path fill-rule="evenodd" clip-rule="evenodd" d="M29.1868 122.727C25.6557 125.153 23.2687 120.363 22.7591 112.637C21.8912 99.2982 34.7924 86.5777 32.9513 85.1673C31.1101 83.7568 27.4508 87.2945 27.4508 87.2945C27.1812 86.821 31.4159 73.4562 28.5424 72.1706C26.642 72.1706 26.0108 80.0318 26.0108 80.0318C26.0108 80.0318 25.5373 68.9749 24.3373 68.7579C23.1372 68.5409 23.6271 80.0318 23.6271 80.0318C23.6271 80.0318 22.2166 70.9246 20.4281 70.2736C18.6395 69.6226 20.8621 79.8707 20.8621 79.8707C20.8621 79.8707 18.6362 75.0442 17.5546 75.6426C16.4729 76.2409 19.9941 82.4713 16.7951 85.5059C13.5961 88.5406 -22.7242 134.369 23.9921 163.065C37.3635 147.639 31.5112 128.645 29.1868 122.727V122.727Z" stroke="#191919" stroke-width="0.3"/>
<path d="M79.02 63.4685C79.02 63.4685 74.6768 55.8309 72.6515 57.2217C70.6262 58.6124 74.3513 66.5097 72.76 66.4275C71.1687 66.3453 68.0256 55.5778 64.7773 57.4222C58.2313 61.1144 51.7609 59.9768 50.6069 53.7596C49.4529 47.5424 55.0421 37.9289 71.366 40.1712C87.6899 42.4134 82.7911 57.5307 79.02 63.4685Z" fill="#2F2F2F"/>
<path opacity="0.58" d="M71.3654 40.1657C69.7959 39.9444 68.2127 39.8346 66.6277 39.837C71.0432 41.5302 77.5563 44.8969 78.615 50.2856C80.2424 58.5576 70.2673 48.257 69.4092 52.587C68.551 56.917 71.1451 59.8596 69.4092 61.2109C70.7966 63.68 71.9769 66.376 72.7693 66.4122C74.3606 66.4845 70.6388 58.5708 72.6608 57.2064C74.6828 55.8419 79.0292 63.4532 79.0292 63.4532C82.7905 57.5319 87.6893 42.4047 71.3654 40.1657Z" fill="#0D0416"/>
<path fill-rule="evenodd" clip-rule="evenodd" d="M79.02 63.4685C79.02 63.4685 74.6768 55.8309 72.6515 57.2217C70.6262 58.6124 74.3513 66.5097 72.76 66.4275C71.1687 66.3453 68.0256 55.5778 64.7773 57.4222C58.2313 61.1144 51.7609 59.9768 50.6069 53.7596C49.4529 47.5424 55.0421 37.9289 71.366 40.1712C87.6899 42.4134 82.7911 57.5307 79.02 63.4685V63.4685Z" stroke="#191919" stroke-width="0.3" stroke-linecap="round"/>
<path d="M84.2181 126.922C74.7427 127.868 68.1342 113.537 63.5445 96.1774C58.5569 77.312 54.4899 72.571 53.5167 72.6795C52.5435 72.788 53.7633 77.963 53.7633 77.963C50.9194 75.9016 43.6468 72.8669 43.2161 74.0177C42.7854 75.1684 45.1131 75.6418 48.4766 78.1932C42.9465 75.8588 37.2981 76.4572 37.8866 77.3778C38.4751 78.2984 47.9341 81.5533 47.9341 81.5533C47.9341 81.5533 38.3995 78.8968 37.949 79.9258C37.4986 80.9549 39.9217 82.7468 46.7965 85.3474C43.2194 84.2624 37.6893 83.5062 37.9589 84.6438C38.2285 85.7814 42.5125 85.5644 46.9313 90.4238C51.3501 95.2831 45.1164 137.285 65.2837 163.413C69.2291 168.529 74.1345 171.596 79.4212 173.023C91.3099 161.276 86.5327 136.236 84.2181 126.922Z" fill="#D1F3FF"/>
<path d="M87.1254 150.722C85.7248 149.623 84.1664 149.298 82.0951 150.616C73.8756 155.821 52.8337 139.073 48.7273 98.8994C49.8747 113.596 49.7136 143.232 65.2813 163.406C69.2267 168.522 74.1321 171.589 79.4188 173.016C84.9916 167.516 86.9051 159.082 87.1254 150.722Z" fill="#79DCFF"/>
<path fill-rule="evenodd" clip-rule="evenodd" d="M84.2203 126.923C74.7449 127.87 68.1364 113.539 63.5467 96.1793C58.5591 77.314 54.4921 72.573 53.5189 72.6815C52.5457 72.79 53.7655 77.965 53.7655 77.965C50.9216 75.9035 43.649 72.8689 43.2183 74.0196C42.7876 75.1704 45.1153 75.6438 48.4787 78.1951C42.9487 75.8608 37.3003 76.4592 37.8888 77.3798C38.4773 78.3003 47.9363 81.5552 47.9363 81.5552C47.9363 81.5552 38.4017 78.8987 37.9512 79.9278C37.5008 80.9569 39.9239 82.7487 46.7987 85.3494C43.2216 84.2644 37.6915 83.5082 37.9611 84.6458C38.2307 85.7833 42.5147 85.5664 46.9335 90.4257C51.3523 95.2851 45.1186 137.287 65.2859 163.415C69.2313 168.53 74.1367 171.598 79.4234 173.025C91.3121 161.278 86.5349 136.238 84.2203 126.923V126.923Z" stroke="#191919" stroke-width="0.3" stroke-linecap="round"/>
<path d="M68.0798 64.5027C68.0798 64.5027 71.4893 57.6477 72.6433 57.1973" stroke="#191919" stroke-width="0.3"/>
<path d="M91.629 95.0781C91.629 95.0781 97.5931 122.308 86.75 126.312C85.935 126.619 85.0843 126.821 84.2184 126.914C86.5198 136.228 91.3101 161.268 79.4116 173.005C101.111 178.871 126.342 162.964 125.769 140.338" stroke="#191919" stroke-width="0.3" stroke-linecap="round"/>
<path d="M67.9543 75.3791C67.9543 75.3791 73.1951 75.5763 74.3885 71.585C74.3885 71.585 75.1316 78.2526 67.9543 79.6631C67.9379 76.3917 67.9543 75.3791 67.9543 75.3791Z" fill="#191919" stroke="#191919" stroke-width="0.3" stroke-linecap="round"/>
<path d="M38.439 89.3301C39.7179 93.3379 41.5098 97.2865 44.0282 100.532" stroke="#191919" stroke-width="0.3"/>
<path d="M35.2729 68.3076C35.2984 72.2408 35.6282 76.1661 36.2593 80.0483" stroke="#191919" stroke-width="0.3"/>
<path opacity="0.52" d="M125.787 141.21C125.787 140.924 125.761 140.612 125.735 140.283L123.884 137.847C118.492 139.26 120.442 150.837 105.397 158.287C94.0669 163.899 91.2427 153.963 87.1231 150.725C86.9028 159.086 84.9893 167.519 79.4099 173.023C100.833 178.806 125.695 163.376 125.787 141.21Z" fill="#533ADB"/>
<path d="M85.45 75.8623C85.45 75.8623 87.2286 94.3331 74.4128 98.7256" stroke="#191919" stroke-width="0.3" stroke-linecap="round"/>
<path d="M61.9205 62.3467C61.9205 62.3467 60.8454 66.6866 60.4279 67.4855C60.0103 68.2844 61.2136 68.4061 63.1666 67.8636" stroke="#191919" stroke-width="0.3" stroke-linecap="round"/>
<path d="M66.451 72.0651C67.2772 72.0651 67.947 71.3954 67.947 70.5692C67.947 69.743 67.2772 69.0732 66.451 69.0732C65.6248 69.0732 64.9551 69.743 64.9551 70.5692C64.9551 71.3954 65.6248 72.0651 66.451 72.0651Z" fill="#191919" stroke="#191919" stroke-width="0.3" stroke-linecap="round"/>
<path d="M54.7551 46.5144C54.2915 46.659 51.8322 48.178 52.4109 52.2252C52.9895 56.2725 55.8104 53.3826 55.3041 51.0712C54.7978 48.7599 56.4483 47.6717 56.4187 46.5144C56.3891 45.3571 54.7551 46.5144 54.7551 46.5144Z" fill="white"/>
<path d="M59.2774 43.334C59.2774 43.334 57.0352 43.7384 57.0352 44.8727C57.0352 46.007 61.0265 44.945 59.2774 43.334Z" fill="white"/>
<path d="M72.6495 16.0811C72.6495 16.0811 67.7178 17.0937 67.4449 20.924C67.172 24.7543 70.0488 17.817 71.4198 18.8231C72.7908 19.8291 74.3229 16.298 72.6495 16.0811Z" fill="white"/>
<path d="M91.3751 4.35619C91.3751 4.35619 88.1958 6.09214 88.9882 8.91307C89.7805 11.734 90.9411 5.87515 91.3751 6.16448C91.8091 6.4538 92.8217 4.22468 91.3751 4.35619Z" fill="white"/>
<path d="M89.3491 11.0176C89.3491 11.0176 88.1556 11.1622 88.8625 12.1749C89.5694 13.1875 90.3617 11.1622 89.3491 11.0176Z" fill="white"/>
<path d="M109.174 6.6084C109.174 6.6084 107.605 6.6084 107.339 7.90708C107.073 9.20575 110.022 7.54871 109.174 6.6084Z" fill="white"/>
<path d="M23.2798 63.4598C23.2798 63.4598 21.9647 57.1769 23.2798 57.213C24.5949 57.2492 24.8218 60.0964 25.8574 62.2072C26.8931 64.318 23.5428 64.9196 23.2798 63.4598Z" fill="white"/>
<path d="M24.6296 65.6436C24.6296 65.6436 26.5004 64.8282 27.3716 66.0809C28.2429 67.3335 24.3502 67.8596 24.6296 65.6436Z" fill="white"/>
<path d="M56.4193 84.6822C56.3864 85.3167 58.8884 91.1887 57.4056 94.2168C55.9228 97.2448 61.4134 95.2294 60.4106 90.6002C59.4079 85.971 56.5935 81.3582 56.4193 84.6822Z" fill="white"/>
<path d="M60.1593 98.7183C60.1593 98.7183 57.6047 97.8635 57.7165 100.451C57.8282 103.038 60.9286 102.706 60.1593 98.7183Z" fill="white"/>
<path d="M24.3789 94.9275C24.4446 95.184 20.3481 101.017 20.5124 103.476C20.6768 105.935 18.2833 107.668 16.7348 106.076C15.1862 104.485 23.2084 90.2589 24.3789 94.9275Z" fill="white"/>
<path d="M18.9444 109.562C18.9444 109.562 17.3005 108.247 16.5345 110.861C15.7684 113.475 17.6589 113.991 18.9444 109.562Z" fill="white"/>
<path d="M46.5551 108.39C46.5551 108.39 41.8733 112.085 42.1034 115.876C42.3336 119.667 46.5551 108.39 46.5551 108.39Z" fill="white"/>
<path d="M43.3284 118.396C43.3284 118.396 42.0823 118.604 42.0396 120.596C41.9968 122.588 43.792 119.554 43.3284 118.396Z" fill="white"/>
<path d="M75.6699 43.3369C77.0458 43.9518 78.2693 44.8621 79.2536 46.0033" stroke="white" stroke-width="0.3" stroke-linecap="round"/>
<path d="M61.7524 42.1734C61.7524 42.1734 67.3943 41.095 72.6515 42.3148" stroke="white" stroke-width="0.3" stroke-linecap="round"/>
<path d="M67.4167 24.3701C67.4167 24.3701 67.1405 30.4657 71.4114 33.9376" stroke="white" stroke-width="0.3" stroke-linecap="round"/>
<path d="M89.2327 17.1299C89.2327 17.1299 89.3478 20.056 86.6387 20.273" stroke="white" stroke-width="0.3" stroke-linecap="round"/>
<path d="M95.9626 3.25609C95.9626 3.25609 99.7568 1.89494 100.516 5.67591" stroke="white" stroke-width="0.3" stroke-linecap="round"/>
<path d="M71.3611 37.8412C71.3611 37.8412 75.793 35.0762 78.0682 37.8412" stroke="white" stroke-width="0.3" stroke-linecap="round"/>
<path d="M54.7564 65.8715C55.0161 65.2797 52.0078 61.3968 50.4559 63.4977C48.9041 65.5986 45.761 66.7855 45.761 66.7855" stroke="white" stroke-width="0.3" stroke-linecap="round"/>
<path d="M65.9106 115.914C67.8406 120.366 70.941 125.021 75.9022 127.842" stroke="white" stroke-width="0.3" stroke-linecap="round"/>
<path d="M62.814 103.979C63.0914 106.718 63.65 109.42 64.4809 112.044" stroke="white" stroke-width="0.3" stroke-linecap="round"/>
<path d="M18.9429 118.404C18.9429 118.404 21.103 127.337 29.4901 127.844" stroke="white" stroke-width="0.3"/>
<path d="M47.6677 152.641C46.0238 159.216 43.1568 168.077 38.4355 175.616" stroke="white" stroke-width="0.3"/>
<path d="M49.5926 142.956C49.5926 142.956 49.3493 144.879 48.7246 147.954" stroke="white" stroke-width="0.3"/>
<path d="M97.3009 105.072C97.3009 105.072 99.4248 117.362 93.3752 123.869" stroke="white" stroke-width="0.3"/>
</svg>
