<svg width="381" height="331" viewBox="0 0 381 331" fill="none" xmlns="http://www.w3.org/2000/svg">
<path d="M121.146 261.02C134.344 262.177 147.149 264.794 159.586 273.071C170.338 280.23 177.507 290.129 186.167 299.176C195.12 308.536 208.16 315.147 219.98 320.165C245.238 330.867 273.886 334.224 300.619 327.516C347.497 315.754 387.745 270.669 380.051 220.733C374.891 187.243 346.424 184.195 322.45 168.817C310.689 161.27 306.401 150.597 309.165 136.797C313.404 115.602 317.589 93.5984 316.359 71.8989C315.438 55.683 310.817 39.227 300.476 26.7013C280.835 2.87489 236.672 -7.51914 208.611 6.05044C187.157 16.4396 181.477 39.1241 171.147 58.4861C160.855 77.7452 145.625 89.8887 123.548 92.7212C89.6066 97.0729 50.9855 107.325 26.7916 133.224C2.52903 159.197 4.83718 199.69 27.3551 226.177C41.5079 242.839 64.8491 255.968 86.6516 258.653C98.4324 260.114 109.934 260.04 121.146 261.02V261.02Z" fill="#E2DEF9"/>
<path d="M132.644 285.116C89.3865 293.599 107.293 298.583 107.293 298.583H155.078C155.078 298.583 153.745 292.447 150.668 259.158C141.513 258.962 126.077 258.305 113.772 256.11C118.998 266.431 125.326 276.156 132.644 285.116Z" fill="#F7BE08"/>
<path opacity="0.62" d="M150.682 259.158C141.597 258.967 126.322 258.311 114.065 256.154C117.432 258.854 126.317 264.299 141.925 262.961C149.428 265.554 140.352 285.371 146.183 289.262C151.907 293.075 122.171 300.72 103.907 294.721C102.436 297.226 107.293 298.583 107.293 298.583H155.078C155.078 298.583 153.76 292.448 150.682 259.158V259.158Z" fill="#F97F06"/>
<path fill-rule="evenodd" clip-rule="evenodd" d="M132.644 285.116C89.3865 293.599 107.293 298.583 107.293 298.583H155.078C155.078 298.583 153.745 292.447 150.668 259.158C141.513 258.962 126.077 258.305 113.772 256.11C118.998 266.431 125.326 276.156 132.644 285.116Z" stroke="#232323" stroke-width="0.3" stroke-linecap="round"/>
<path fill-rule="evenodd" clip-rule="evenodd" d="M141.925 52.7135L49.6084 94.7258L18.0195 74.957L21.3519 45.1765L47.2806 27.6914L135.828 17.0327L141.925 52.7135Z" stroke="#232323" stroke-width="0.3" stroke-linecap="round"/>
<path d="M139.284 55.0213C149.861 55.0213 158.435 46.447 158.435 35.87C158.435 25.2931 149.861 16.7188 139.284 16.7188C128.707 16.7188 120.132 25.2931 120.132 35.87C120.132 46.447 128.707 55.0213 139.284 55.0213Z" fill="#CBCBCB"/>
<path d="M139.283 16.7188C134.536 16.7147 129.958 18.4773 126.439 21.6634C131.339 20.1932 140.621 18.2624 147.462 21.7467C157.175 26.6913 144.64 31.1263 150.167 38.4379C155.695 45.7495 149.839 55.0556 128.394 51.6252C135.174 56.3146 144.193 56.14 150.786 51.1918C157.378 46.2435 160.065 37.6318 157.456 29.8126C154.846 21.9934 147.526 16.7211 139.283 16.7237V16.7188Z" fill="#959595"/>
<path fill-rule="evenodd" clip-rule="evenodd" d="M139.284 55.0213C149.861 55.0213 158.435 46.447 158.435 35.87C158.435 25.2931 149.861 16.7188 139.284 16.7188C128.707 16.7188 120.132 25.2931 120.132 35.87C120.132 46.447 128.707 55.0213 139.284 55.0213Z" stroke="#231F20" stroke-width="0.3"/>
<path d="M139.283 44.0489C143.801 44.0489 147.462 40.387 147.462 35.8699C147.462 31.3528 143.801 27.6909 139.283 27.6909C134.766 27.6909 131.104 31.3528 131.104 35.8699C131.104 40.387 134.766 44.0489 139.283 44.0489Z" fill="#232323" stroke="#232323" stroke-width="0.3"/>
<path fill-rule="evenodd" clip-rule="evenodd" d="M139.284 48.9397C146.502 48.9397 152.353 43.0882 152.353 35.87C152.353 28.6518 146.502 22.8003 139.284 22.8003C132.065 22.8003 126.214 28.6518 126.214 35.87C126.214 43.0882 132.065 48.9397 139.284 48.9397Z" stroke="white" stroke-width="0.3"/>
<path d="M227.4 185.483C226.631 169.184 193.738 167.949 193.738 167.949C193.738 167.949 125.484 149.793 105.828 177.447L105.695 177.613C92.1208 195.927 86.7155 236.351 88.2003 248.455C88.7198 252.714 96.7469 255.409 106.92 257.119C119.221 259.187 141.528 259.805 150.682 259.991V259.962C154.843 260.123 162.586 260.05 161.498 257.119C160.861 255.414 159.317 243.888 156.357 230.862C172.269 218.939 211.096 241.766 211.096 241.766C211.096 241.766 228.174 201.778 227.4 185.483V185.483Z" fill="#705BE1"/>
<path d="M156.357 230.863C156.357 230.863 162.115 262.226 102.848 248.147C96.4774 245.986 90.7634 245.207 88.1465 247.819C88.1465 248.029 88.1857 248.255 88.2102 248.456C88.7296 252.714 96.7567 255.41 106.93 257.12C119.231 259.188 141.538 259.805 150.692 259.992V259.962C154.853 260.124 162.595 260.05 161.507 257.12C160.861 255.414 159.317 243.879 156.357 230.863V230.863Z" fill="#533ADB"/>
<path d="M156.357 230.863C156.772 230.556 157.202 230.271 157.646 230.01C156.7 229.554 156.21 229.794 156.357 230.863V230.863Z" fill="#533ADB"/>
<path d="M167.221 215.548C148.717 188.135 135.829 190.668 135.829 190.668C145.983 193.609 152.427 213.554 156.357 230.853C165.041 224.35 180.551 228.197 192.851 233.038C194.218 231.357 195.071 229.074 195.105 226.099C195.262 212.579 194.566 184.445 198.604 175.32C177.856 210.731 178.992 223.884 167.221 215.548V215.548Z" fill="#533ADB"/>
<path fill-rule="evenodd" clip-rule="evenodd" d="M227.4 185.483C226.631 169.184 193.738 167.949 193.738 167.949C193.738 167.949 125.484 149.793 105.828 177.447L105.695 177.613C92.1208 195.927 86.7155 236.351 88.2003 248.455C88.7198 252.714 96.7469 255.409 106.92 257.119C119.221 259.187 141.528 259.805 150.682 259.991V259.962C154.843 260.123 162.586 260.05 161.498 257.119C160.861 255.414 159.317 243.888 156.357 230.862C172.269 218.939 211.096 241.766 211.096 241.766C211.096 241.766 228.174 201.778 227.4 185.483V185.483Z" stroke="#232323" stroke-width="0.3" stroke-linecap="round"/>
<path d="M218.353 223.105C218.197 222.556 218.015 222.007 217.8 221.463C210.145 202.273 202.652 166.2 202.652 166.2C202.652 166.2 184.319 203.135 187.299 231.019C195.545 233.861 203.511 237.458 211.096 241.766C211.096 241.766 214.6 233.587 218.353 223.105V223.105Z" fill="#232323" stroke="#232323" stroke-width="0.3" stroke-linecap="round"/>
<path d="M311.356 247.72C311.356 247.72 311.822 219.028 309.043 221.63C306.264 224.232 302.099 250.322 303.3 251.479C304.5 252.635 311.356 247.72 311.356 247.72Z" fill="#232323" stroke="#232323" stroke-width="0.3" stroke-linecap="round"/>
<path d="M344.361 248.872C332.511 247.892 320.784 245.853 304.784 246.387C304.211 258.041 304.323 272.326 307.077 282.705C314.456 277.854 321.47 272.468 328.061 266.592C328.061 266.592 336.584 295.089 340.313 296.245C344.042 297.402 344.733 278.912 344.361 248.872Z" fill="#F7BE08"/>
<path d="M344.361 248.872C332.511 247.892 320.784 245.853 304.784 246.387C304.211 258.041 304.323 272.326 307.077 282.705C314.456 277.854 321.47 272.468 328.061 266.592C328.061 266.592 336.584 295.089 340.313 296.245C344.042 297.402 344.733 278.912 344.361 248.872Z" fill="#F7BE08"/>
<path opacity="0.62" d="M344.361 248.872C332.511 247.892 320.784 245.853 304.784 246.387C304.549 251.175 304.431 256.404 304.564 261.628C305.774 260.912 325.288 249.465 334.976 254.007C344.121 258.3 337.681 288.635 340.004 296.098C340.093 296.158 340.189 296.207 340.288 296.245C343.993 297.402 344.733 278.912 344.361 248.872V248.872Z" fill="#F97F06"/>
<path fill-rule="evenodd" clip-rule="evenodd" d="M344.361 248.872C332.511 247.892 320.784 245.853 304.784 246.387C304.211 258.041 304.323 272.326 307.077 282.705C314.456 277.854 321.47 272.468 328.061 266.592C328.061 266.592 336.584 295.089 340.313 296.245C344.042 297.402 344.733 278.912 344.361 248.872Z" stroke="#232323" stroke-width="0.3" stroke-linecap="round"/>
<path d="M270.343 200.347C270.343 200.347 271.279 239.115 286.579 236.165C301.878 233.215 307.877 223.262 307.877 223.262C306.29 230.886 305.256 238.614 304.784 246.387C304.211 258.041 304.324 272.326 307.078 282.705C301.619 286.335 295.919 289.59 290.019 292.447C273.034 300.572 247.414 299.102 232.942 287.493C200.717 261.687 194.576 204.419 200.756 177.721C206.935 151.023 264.801 127.941 264.801 127.941C264.869 129.862 268.609 128.868 270.343 200.347V200.347Z" fill="#705BE1"/>
<path d="M307.876 223.262C307.876 223.262 301.829 233.219 286.564 236.165C271.299 239.11 270.328 200.347 270.328 200.347C269.623 171.188 268.579 154.091 267.589 143.937L261.497 131.22L201.294 175.78C201.294 175.78 227.204 185.062 244.718 172.306C262.233 159.55 238.779 235.116 261.497 247.71C284.216 260.305 291.131 235.861 295.311 249.18C298.658 259.8 302.662 278.633 306.857 282.813L307.048 282.69C304.294 272.311 304.181 258.026 304.754 246.372C305.237 238.604 306.28 230.88 307.876 223.262V223.262Z" fill="#533ADB"/>
<path fill-rule="evenodd" clip-rule="evenodd" d="M270.343 200.347C270.343 200.347 271.279 239.115 286.579 236.165C301.878 233.215 307.877 223.262 307.877 223.262C306.29 230.886 305.256 238.614 304.784 246.387C304.211 258.041 304.324 272.326 307.078 282.705C301.619 286.335 295.919 289.59 290.019 292.447C273.034 300.572 247.414 299.102 232.942 287.493C200.717 261.687 194.576 204.419 200.756 177.721C206.935 151.023 264.801 127.941 264.801 127.941C264.869 129.862 268.609 128.868 270.343 200.347V200.347Z" stroke="#232323" stroke-width="0.3" stroke-linecap="round"/>
<path d="M148.824 114.94C148.477 114.009 148.236 113.043 148.104 112.058C146.923 104.561 149.241 84.6889 148.163 70.8351C148.148 70.3166 148.102 69.7995 148.026 69.2865C148.026 69.2865 148.026 69.2424 148.026 69.2228C147.986 68.816 147.942 68.4191 147.893 68.0222C147.227 59.9167 152.206 56.3589 149.197 56.3589C147.761 56.3589 146.394 57.7506 145.399 59.113C144.159 57.0793 142.459 56.0502 140.116 56.4422C126.586 58.7258 136.72 62.8129 131.624 78.3476C126.527 93.8823 107.41 143.162 140.469 151.248L140.641 151.282C134.77 138.58 148.824 114.94 148.824 114.94V114.94Z" fill="#D9F9FF"/>
<path fill-rule="evenodd" clip-rule="evenodd" d="M148.824 114.94C148.477 114.009 148.236 113.043 148.104 112.058C146.923 104.561 149.241 84.6889 148.163 70.8351C148.148 70.3166 148.102 69.7995 148.026 69.2865C148.026 69.2865 148.026 69.2424 148.026 69.2228C147.986 68.816 147.942 68.4191 147.893 68.0222C147.227 59.9167 152.206 56.3589 149.197 56.3589C147.761 56.3589 146.394 57.7506 145.399 59.113C144.159 57.0793 142.459 56.0502 140.116 56.4422C126.586 58.7258 136.72 62.8129 131.624 78.3476C126.527 93.8823 107.41 143.162 140.469 151.248L140.641 151.282C134.77 138.58 148.824 114.94 148.824 114.94V114.94Z" stroke="#232323" stroke-width="0.3"/>
<path d="M189.401 123.222C187.284 109.427 184.231 88.6636 178.948 80.416C174.244 82.4938 165.045 86.7377 161.551 95.6077C157.048 107.06 151.344 121.125 148.81 114.916C146.276 108.707 134.755 138.556 140.621 151.248C162.316 156.497 180.335 141.158 189.401 123.222V123.222Z" fill="white"/>
<path opacity="0.59" d="M170.005 85.8999C170.005 85.8999 160.385 109.05 165.203 130.039C168.06 142.506 152.403 148.489 139.23 142.393C139.053 145.613 139.411 148.676 140.612 151.273C154.784 154.674 167.388 149.313 176.954 140.173L170.005 85.8999Z" fill="#DBD9D9"/>
<path fill-rule="evenodd" clip-rule="evenodd" d="M189.401 123.222C187.284 109.427 184.231 88.6636 178.948 80.416C174.244 82.4938 165.045 86.7377 161.551 95.6077C157.048 107.06 151.344 121.125 148.81 114.916C146.276 108.707 134.755 138.556 140.621 151.248C162.316 156.497 180.335 141.158 189.401 123.222V123.222Z" stroke="#232323" stroke-width="0.3"/>
<path d="M170.245 84.9982C170.245 84.9982 169.5 89.9673 169.059 97.5632C167.976 116.185 168.706 150.572 186.701 166.2C201.403 166.715 245.596 154.86 261.527 121.149C244.488 98.803 255.352 42.4959 180.693 79.7889C169.809 83.6162 170.245 84.9982 170.245 84.9982Z" fill="white"/>
<path opacity="0.59" d="M192.832 74.2268L192.734 74.3542C192.734 74.3542 195.4 73.3741 192.4 88.8647C189.401 104.355 192.601 134.704 208.165 143.795C223.73 152.885 233.129 144.05 234.785 148.587C234.937 149.004 235.442 149.259 236.221 149.357C246.512 142.462 255.823 133.185 261.513 121.149C245.463 100.102 254.157 48.9351 192.832 74.2268Z" fill="#DBD9D9"/>
<path fill-rule="evenodd" clip-rule="evenodd" d="M170.245 84.9982C170.245 84.9982 169.5 89.9673 169.059 97.5632C167.976 116.185 168.706 150.572 186.701 166.2C201.403 166.715 245.596 154.86 261.527 121.149C244.488 98.803 255.352 42.4959 180.693 79.7889C169.809 83.6162 170.245 84.9982 170.245 84.9982Z" stroke="#232323" stroke-width="0.3"/>
<path d="M171.098 53.4872C171.098 53.4872 167.854 60.8968 173.225 63.2883C178.596 65.6798 177.949 48.1947 171.098 53.4872Z" fill="#232323" stroke="#232323" stroke-width="0.3"/>
<path d="M174.896 52.1888C174.896 52.1888 166.001 75.7114 180.634 76.4514C180.821 85.5271 180.081 97.754 188.044 94.0492C196.007 90.3444 196.561 69.228 188.044 54.7812C179.527 40.3344 174.896 52.1888 174.896 52.1888Z" fill="#D9F9FF" stroke="#232323" stroke-width="0.3"/>
<path d="M180.634 76.4516C183.951 76.4075 185.921 74.9079 187.004 72.6978C187.911 75.5891 186.363 82.6899 180.747 83.2437C180.663 78.4902 180.634 76.4516 180.634 76.4516V76.4516Z" fill="#232323" stroke="#232323" stroke-width="0.3"/>
<path d="M169.397 49.2581C169.397 43.5441 174.734 38.918 181.316 38.918C187.897 38.918 193.229 44.5634 193.229 50.2774C192.474 51.1007 169.397 49.2581 169.397 49.2581Z" fill="#F7BE08"/>
<path opacity="0.62" d="M181.315 38.918C180.697 38.9211 180.079 38.967 179.467 39.0552C181.614 40.1578 185.98 42.8384 186.995 46.7588C188.352 52.0024 170.95 43.8185 169.456 48.2829C169.456 48.474 169.456 48.6651 169.421 48.8611C169.446 49.0037 169.494 49.1412 169.564 49.2679C171.524 49.4247 192.498 51.0615 193.228 50.2774C193.228 44.5634 187.896 38.918 181.315 38.918V38.918Z" fill="#F97F06"/>
<path fill-rule="evenodd" clip-rule="evenodd" d="M169.397 49.2581C169.397 43.5441 174.734 38.918 181.316 38.918C187.897 38.918 193.229 44.5634 193.229 50.2774C192.474 51.1007 169.397 49.2581 169.397 49.2581Z" stroke="#232323" stroke-width="0.3"/>
<path d="M146.36 34.7674C146.303 34.0101 145.85 33.3392 145.169 33.0032L142.753 31.8075C142.557 31.7101 142.325 31.725 142.143 31.8466C141.962 31.9682 141.86 32.1778 141.876 32.3956L142.219 37.7077L140.258 38.8398C139.887 39.0397 139.443 39.056 139.058 38.8839L136.98 38.0116L136.637 32.6994C136.63 32.4776 136.503 32.2771 136.305 32.1754C136.108 32.0737 135.871 32.0867 135.686 32.2093L133.447 33.6795C132.81 34.1045 132.448 34.8365 132.496 35.6005L132.854 41.1283C132.901 41.8938 133.356 42.575 134.045 42.9121L136.465 44.1078L137.049 67.0619C137.137 70.556 139.342 73.3493 141.881 73.1876C144.419 73.0259 146.242 69.9679 145.884 66.4935L143.507 43.657L145.757 42.1574C146.394 41.7325 146.756 41.0005 146.708 40.2364L146.36 34.7674Z" fill="#9B9B9B"/>
<path opacity="0.79" d="M145.919 66.5525L143.542 43.716L145.791 42.2164C146.428 41.7915 146.79 41.0595 146.742 40.2954L146.384 34.7676C146.322 34.005 145.859 33.3329 145.169 33.0034L144.061 32.4546C144.316 34.5569 144.85 40.6679 142.439 41.2755C139.499 42.0204 138.406 45.9016 140.259 49.9495C141.949 53.6396 143.12 66.3516 140.881 73.1682C141.211 73.2484 141.551 73.2797 141.89 73.2613C144.448 73.08 146.252 70.027 145.919 66.5525V66.5525Z" fill="#767777"/>
<path fill-rule="evenodd" clip-rule="evenodd" d="M146.36 34.7674C146.303 34.0101 145.85 33.3392 145.169 33.0032L142.753 31.8075C142.557 31.7101 142.325 31.725 142.143 31.8466C141.962 31.9682 141.86 32.1778 141.876 32.3956L142.219 37.7077L140.258 38.8398C139.887 39.0397 139.443 39.056 139.058 38.8839L136.98 38.0116L136.637 32.6994C136.63 32.4776 136.503 32.2771 136.305 32.1754C136.108 32.0737 135.871 32.0867 135.686 32.2093L133.447 33.6795C132.81 34.1045 132.448 34.8365 132.496 35.6005L132.854 41.1283C132.901 41.8938 133.356 42.575 134.045 42.9121L136.465 44.1078L137.049 67.0619C137.137 70.556 139.342 73.3493 141.881 73.1876C144.419 73.0259 146.242 69.9679 145.884 66.4935L143.507 43.657L145.757 42.1574C146.394 41.7325 146.756 41.0005 146.708 40.2364L146.36 34.7674Z" stroke="#232323" stroke-width="0.3"/>
<path d="M192.18 52.1888C192.18 52.1888 194.341 55.0997 197.57 54.6391C200.8 54.1784 200.722 64.5725 195.12 65.6849C189.519 66.7973 189.342 54.6636 186.564 57.5059C184.417 59.7062 185.02 64.9596 185.02 64.9596C185.02 64.9596 179.733 59.9562 179.894 53.7325C180.056 47.5088 192.18 52.1888 192.18 52.1888V52.1888Z" fill="#232323" stroke="#232323" stroke-width="0.3"/>
<path d="M185.819 53.4873C185.819 53.4873 193.738 76.265 180.634 76.4512" stroke="white" stroke-width="0.3"/>
<path d="M183.908 53.7327C185.171 55.2097 185.946 57.0413 186.128 58.9763C186.471 62.2793 188.847 61.5393 188.661 57.9962C188.475 54.4531 187.397 52.6987 187.397 52.6987L183.908 53.7327Z" fill="#F7BE08"/>
<path opacity="0.62" d="M188.661 57.9962C188.475 54.458 187.397 52.6987 187.397 52.6987L183.908 53.718C184.135 53.9674 184.341 54.2345 184.525 54.5168C185.677 54.9579 187.039 55.7616 187.549 57.1778C188.127 58.7803 187.255 60.0838 186.951 60.9414C187.745 61.5001 188.784 60.3975 188.661 57.9962Z" fill="#F97F06"/>
<path fill-rule="evenodd" clip-rule="evenodd" d="M183.908 53.7327C185.171 55.2097 185.946 57.0413 186.128 58.9763C186.471 62.2793 188.847 61.5393 188.661 57.9962C188.475 54.4531 187.397 52.6987 187.397 52.6987L183.908 53.7327Z" stroke="#232323" stroke-width="0.3"/>
<path d="M171.892 49.2582C171.892 43.5442 177.821 38.9181 185.045 39.5307" stroke="#232323" stroke-width="0.3"/>
<path d="M192.964 49.9688C191.748 50.547 176.944 50.2432 170.186 48.577C163.065 48.4055 162.404 50.9881 162.962 51.728C175.464 57.4666 192.964 53.0218 192.964 53.0218C194.228 52.468 193.738 49.5914 192.964 49.9688Z" fill="#F7BE08"/>
<path opacity="0.62" d="M192.964 49.9691C192.449 50.2141 189.455 50.3023 185.672 50.1896C185.387 50.8659 183.305 54.7765 173.91 52.7134C168.289 51.4784 165.065 50.4934 163.301 50.1504C162.708 50.7727 162.717 51.4147 162.953 51.7283C175.454 57.4669 192.954 53.0221 192.954 53.0221C194.228 52.4683 193.738 49.5917 192.964 49.9691Z" fill="#F97F06"/>
<path fill-rule="evenodd" clip-rule="evenodd" d="M192.964 49.9688C191.748 50.547 176.944 50.2432 170.186 48.577C163.065 48.4055 162.404 50.9881 162.962 51.728C175.464 57.4666 192.964 53.0218 192.964 53.0218C194.228 52.468 193.738 49.5914 192.964 49.9688Z" stroke="#232323" stroke-width="0.3"/>
<path d="M135.589 70.3995C135.937 67.0524 141.352 69.6546 141.758 68.3167C142.165 66.9789 138.941 65.9645 138.941 65.9645C138.941 65.9645 143.562 66.9446 143.268 65.2392C142.974 63.5338 139.058 63.0095 139.058 63.0095C139.058 63.0095 145.037 63.5975 144.395 60.9758C143.753 58.354 138.823 59.4664 138.823 59.4664C138.823 59.4664 145.194 57.7316 142.538 56.6045C131.546 54.213 132.688 61.7696 132.688 61.7696C133.53 60.6964 135.309 60.3632 135.309 60.3632L135.589 70.3995Z" fill="#D9F9FF"/>
<path d="M171.499 51.2039C172.455 51.2039 173.229 50.0981 173.229 48.734C173.229 47.37 172.455 46.2642 171.499 46.2642C170.544 46.2642 169.77 47.37 169.77 48.734C169.77 50.0981 170.544 51.2039 171.499 51.2039Z" fill="#F7BE08" stroke="#232323" stroke-width="0.3"/>
<path d="M132.687 61.7693C132.687 61.7693 131.555 54.2127 142.547 56.5797C145.198 57.7068 138.833 59.4416 138.833 59.4416C138.833 59.4416 143.758 58.3537 144.404 60.9754C145.051 63.5972 139.058 63.0092 139.058 63.0092C139.058 63.0092 142.978 63.4992 143.268 65.2389C143.557 66.9786 138.94 65.9642 138.94 65.9642C138.94 65.9642 142.17 66.9786 141.758 68.3164C141.347 69.6543 135.936 67.0521 135.588 70.3992" stroke="#232323" stroke-width="0.3" stroke-linecap="round"/>
<path d="M198.938 72.1735C202.294 64.3326 212.752 67.6797 212.752 67.6797C210.013 70.4534 208.165 75.545 208.165 81.4012C208.165 90.1976 212.341 97.3279 217.476 97.3279C222.612 97.3279 226.787 90.1976 226.787 81.4012C226.787 78.7304 229.203 72.6292 228.522 70.4191C242.028 80.8719 254.985 105.34 260.376 113.5C261.056 114.534 260.989 115.89 260.209 116.852C254.941 123.364 234.447 147.235 220.24 143.398C203.818 138.953 190.288 90.8788 198.908 72.1931" fill="#F7BE08"/>
<path d="M206.494 129C229.497 123.61 245.032 112.564 252.834 101.116C251.305 98.6315 249.643 95.9902 247.874 93.3096C232.918 108.207 207.313 116.254 201.736 117.876C203.044 121.697 204.635 125.415 206.494 129V129Z" fill="white"/>
<path opacity="0.62" d="M205.592 72.6975C207.675 75.9907 204.568 88.7174 212.605 97.4501C212.34 96.3328 212.115 95.2253 211.939 94.1275C209.665 91.2264 208.185 86.6052 208.185 81.3862C208.185 75.5496 210.032 70.458 212.772 67.6647C215.511 64.8714 202.314 64.298 198.957 72.1585C198.712 72.6877 198.467 73.2464 198.276 73.8197C200.079 72.5505 204.014 70.208 205.592 72.6975V72.6975Z" fill="#F97F06"/>
<path opacity="0.62" d="M219.466 143.118L219.53 143.143C223.538 143.3 223.308 144.069 226.15 143.555C241.386 139.703 256.044 121.992 260.238 116.832C261.018 115.87 261.086 114.514 260.405 113.48C256.774 107.957 249.658 94.9609 241.249 83.8955L226.498 85.5372C225.43 92.3146 221.813 97.2985 217.511 97.2985C216.629 97.2905 215.761 97.081 214.972 96.6859C214.776 98.1561 214.835 99.4008 215.364 100.116C215.364 100.116 223.205 104.62 227.4 98.2149C227.4 98.2149 231.507 93.3143 233.423 96.7006C235.339 100.087 228.522 120.287 238.235 118.189C247.948 116.092 252.677 132.264 219.466 143.118V143.118Z" fill="#F97F06"/>
<path d="M198.938 72.1735C202.294 64.3326 212.752 67.6797 212.752 67.6797C210.013 70.4534 208.165 75.545 208.165 81.4012C208.165 90.1976 212.341 97.3279 217.476 97.3279C222.612 97.3279 226.787 90.1976 226.787 81.4012C226.787 78.7304 229.203 72.6292 228.522 70.4191C242.028 80.8719 254.985 105.34 260.376 113.5C261.056 114.534 260.989 115.89 260.209 116.852C254.941 123.364 234.447 147.235 220.24 143.398C203.818 138.953 190.288 90.8788 198.908 72.1931" stroke="#232323" stroke-width="0.3"/>
<path d="M177.993 80.7737C177.993 80.7737 173.97 122.595 192.636 151.106C199.55 159.383 182.756 163.848 177.993 160.285C173.23 156.722 161.821 115.327 170.245 84.9882C172.22 77.5639 177.993 80.7737 177.993 80.7737Z" fill="#F7BE08"/>
<path opacity="0.62" d="M177.993 80.7734L177.718 80.6411C176.772 88.5898 173.21 124.393 183.221 142.143C186.578 152.4 176.704 151.101 174.528 153.943C175.807 157.32 177.032 159.574 177.993 160.289C182.756 163.872 199.555 159.393 192.635 151.116C173.969 122.595 177.993 80.7734 177.993 80.7734Z" fill="#F97F06"/>
<path d="M170.868 141.344C175.742 139.96 180.507 138.216 185.123 136.125C183.69 132.316 182.487 128.425 181.521 124.472C178.581 125.594 174.058 127.216 168.594 128.774C169.206 133.268 169.995 137.507 170.868 141.344V141.344Z" fill="white"/>
<path fill-rule="evenodd" clip-rule="evenodd" d="M177.993 80.7737C177.993 80.7737 173.97 122.595 192.636 151.106C199.55 159.383 182.756 163.848 177.993 160.285C173.23 156.722 161.821 115.327 170.245 84.9882C172.22 77.5639 177.993 80.7737 177.993 80.7737Z" stroke="#232323" stroke-width="0.3"/>
<path d="M215.364 100.141C215.364 100.141 223.205 104.644 227.4 98.2393" stroke="#232323" stroke-width="0.3" stroke-linecap="round"/>
<path d="M186.686 166.2C186.686 166.2 232.751 164.553 261.512 121.149C272.132 120.811 262.003 148.862 229.566 166.2C197.129 183.538 177.547 174.266 186.686 166.2Z" fill="#F7BE08"/>
<path opacity="0.62" d="M262.297 121.213C261.072 126.491 257.773 137.943 251.305 142.8C245.179 147.396 232.374 151.621 225.871 154.125C224.545 154.857 223.226 155.544 221.916 156.188C222.612 157.462 221.637 177.103 184.442 170.326C184.456 170.76 184.553 171.187 184.726 171.585C185.331 172.349 185.986 173.071 186.686 173.747C192.307 177.515 208.136 177.667 229.576 166.219C261.125 149.317 271.573 122.286 262.297 121.213V121.213Z" fill="#F97F06"/>
<path fill-rule="evenodd" clip-rule="evenodd" d="M186.686 166.2C186.686 166.2 232.751 164.553 261.512 121.149C272.132 120.811 262.003 148.862 229.566 166.2C197.129 183.538 177.547 174.266 186.686 166.2Z" stroke="#232323" stroke-width="0.3" stroke-linecap="round"/>
<path d="M270.118 70.4726C268.733 68.3306 266.923 66.4958 264.801 65.082C261.282 73.3198 245.826 87.1883 239.636 92.525C239.999 93.5051 239.906 95.0047 239.21 97.0874C233.927 112.882 213.056 121.365 212.492 121.276C210.454 122.943 218.05 123.124 218.05 123.124C218.05 123.124 211.424 129.054 211.61 130.72C211.797 132.386 217.001 128.76 217.001 128.76C217.001 128.76 213.296 136.679 214.271 136.865C215.246 137.051 219.735 130.151 219.735 130.151C219.735 130.151 217.143 140.197 218.3 140.482C219.456 140.766 222.142 132.513 222.142 132.513C222.142 132.513 221.651 139.644 222.328 140.428C223.004 141.212 224.734 133.111 224.734 133.111C224.734 133.111 245.448 121.678 259.802 108.295C271.833 97.0727 277.64 82.0526 270.118 70.4726V70.4726Z" fill="#D9F9FF"/>
<path opacity="0.61" d="M259.783 108.31C271.833 97.0727 277.64 82.0526 270.118 70.4726C268.734 68.3306 266.924 66.4958 264.801 65.082C263.061 69.1544 258.401 74.6087 253.383 79.7248C248.365 84.841 267.315 67.6401 268.521 76.4366C269.726 85.233 269.354 104.776 224.254 127.926C223.328 131.323 221.956 138.32 222.485 140.457C223.254 140.031 224.715 133.106 224.715 133.106C224.715 133.106 245.429 121.703 259.783 108.31V108.31Z" fill="#8EECFF"/>
<path fill-rule="evenodd" clip-rule="evenodd" d="M270.118 70.4726C268.733 68.3306 266.923 66.4958 264.801 65.082C261.282 73.3198 245.826 87.1883 239.636 92.525C239.999 93.5051 239.906 95.0047 239.21 97.0874C233.927 112.882 213.056 121.365 212.492 121.276C210.454 122.943 218.05 123.124 218.05 123.124C218.05 123.124 211.424 129.054 211.61 130.72C211.797 132.386 217.001 128.76 217.001 128.76C217.001 128.76 213.296 136.679 214.271 136.865C215.246 137.051 219.735 130.151 219.735 130.151C219.735 130.151 217.143 140.197 218.3 140.482C219.456 140.766 222.142 132.513 222.142 132.513C222.142 132.513 221.651 139.644 222.328 140.428C223.004 141.212 224.734 133.111 224.734 133.111C224.734 133.111 245.448 121.678 259.802 108.295C271.833 97.0727 277.64 82.0526 270.118 70.4726V70.4726Z" stroke="#232323" stroke-width="0.3"/>
<path d="M208.185 81.3816C208.513 96.4998 215.364 100.116 215.364 100.116C215.364 100.116 237.284 85.9881 239.636 92.5401C245.826 87.2035 261.282 73.335 264.8 65.0972C252.289 56.7222 229.845 62.7988 212.757 67.6797C207.582 73.0262 208.185 81.3816 208.185 81.3816V81.3816Z" fill="white"/>
<path opacity="0.59" d="M213.511 77.7895C218.103 66.1753 237.867 64.3229 239.254 70.0614C240.641 75.7999 254.166 64.5091 254.627 70.6201C255.088 76.731 247.497 84.6013 247.497 84.6013C247.497 84.6013 248.148 84.3269 249.236 83.8319C255.607 77.7111 262.585 70.2868 264.8 65.0972C252.289 56.7222 229.845 62.7988 212.757 67.6797C207.582 73.0262 208.185 81.4012 208.185 81.4012C208.513 96.5194 215.364 100.136 215.364 100.136C215.364 100.136 208.915 89.4087 213.511 77.7895V77.7895Z" fill="#DBD9D9"/>
<path fill-rule="evenodd" clip-rule="evenodd" d="M208.185 81.3816C208.513 96.4998 215.364 100.116 215.364 100.116C215.364 100.116 237.284 85.9881 239.636 92.5401C245.826 87.2035 261.282 73.335 264.8 65.0972C252.289 56.7222 229.845 62.7988 212.757 67.6797C207.582 73.0262 208.185 81.3816 208.185 81.3816V81.3816Z" stroke="#232323" stroke-width="0.3"/>
<path d="M135.829 190.668C153.622 195.853 160.013 253.145 161.498 257.119" stroke="#232323" stroke-width="0.3" stroke-linecap="round"/>
<path d="M261.512 121.149C261.512 121.149 274.45 120.169 280.997 137.321C287.544 154.473 261.718 153.493 251.305 134.175C253.73 127.942 261.512 121.149 261.512 121.149Z" fill="#F7BE08"/>
<path opacity="0.62" d="M280.997 137.341C274.45 120.189 261.512 121.169 261.512 121.169C261.512 121.169 254.269 127.496 251.579 133.558C251.625 133.835 251.686 134.11 251.76 134.381C251.76 134.381 261.4 135.679 263.83 140.188C266.261 144.696 273.426 134.567 276.356 140.188C279.228 145.681 275.376 149.18 272.857 149.499C279.605 149.832 284.212 145.779 280.997 137.341V137.341Z" fill="#F97F06"/>
<path fill-rule="evenodd" clip-rule="evenodd" d="M261.512 121.149C261.512 121.149 274.45 120.169 280.997 137.321C287.544 154.473 261.718 153.493 251.305 134.175C253.73 127.942 261.512 121.149 261.512 121.149Z" stroke="#232323" stroke-width="0.3"/>
<path d="M261.512 121.149C261.512 121.149 272.749 120.169 275.724 123.599C278.699 127.03 270.912 140.516 263.87 136.689C256.828 132.861 251.319 134.175 251.319 134.175C251.319 134.175 253.485 124.731 261.512 121.149V121.149Z" fill="#F7BE08"/>
<path opacity="0.62" d="M264.414 123.065C271.201 122.879 275.219 127.118 274.631 131.2C276.307 128.26 276.949 125.064 275.709 123.619C272.769 120.164 261.498 121.169 261.498 121.169C253.471 124.751 251.29 134.214 251.29 134.214C251.29 134.214 257.622 123.251 264.414 123.065Z" fill="#F97F06"/>
<path fill-rule="evenodd" clip-rule="evenodd" d="M261.512 121.149C261.512 121.149 272.749 120.169 275.724 123.599C278.699 127.03 270.912 140.516 263.87 136.689C256.828 132.861 251.319 134.175 251.319 134.175C251.319 134.175 253.485 124.731 261.512 121.149V121.149Z" stroke="#232323" stroke-width="0.3"/>
<path d="M276.817 137.194C277.452 136.574 276.319 134.385 274.288 132.306C272.256 130.228 270.095 129.045 269.46 129.666C268.825 130.286 269.957 132.474 271.989 134.553C274.02 136.632 276.182 137.815 276.817 137.194Z" fill="#F7BE08" stroke="#232323" stroke-width="0.3"/>
<path d="M245.458 137.385C245.458 137.385 254.461 141.05 257.181 150.812C259.9 160.574 249.781 157.967 249.781 157.967C249.781 157.967 244.503 146.411 239 145.519C233.496 144.628 241.386 136.213 245.458 137.385V137.385Z" fill="#F7BE08"/>
<path opacity="0.62" d="M245.458 137.384C244.812 137.225 244.135 137.242 243.498 137.433C242.12 138.058 240.807 138.817 239.578 139.697C237.676 141.417 236.461 143.618 237.456 144.774C240.077 145.803 246.007 147.739 249.276 145.754C253.657 143.873 258.097 155.6 253.235 158.226C255.867 158.02 258.768 156.59 257.156 150.802C254.461 141.055 245.458 137.384 245.458 137.384V137.384Z" fill="#F97F06"/>
<path fill-rule="evenodd" clip-rule="evenodd" d="M245.458 137.385C245.458 137.385 254.461 141.05 257.181 150.812C259.9 160.574 249.781 157.967 249.781 157.967C249.781 157.967 244.503 146.411 239 145.519C233.496 144.628 241.386 136.213 245.458 137.385V137.385Z" stroke="#232323" stroke-width="0.3"/>
<path d="M248.668 141.584C248.668 141.584 252.495 145.353 251.633 146.647C250.77 147.94 246.634 143.069 246.634 143.069L248.668 141.584Z" fill="#F7BE08" stroke="#232323" stroke-width="0.3"/>
<path d="M239.808 138.962C239.808 138.962 244.072 134.611 249.609 138.59C255.147 142.569 240.548 146.205 237.819 145.088C235.089 143.971 239.808 138.962 239.808 138.962Z" fill="#F7BE08"/>
<path opacity="0.62" d="M249.628 138.59C244.071 134.611 239.827 138.962 239.827 138.962L239.651 139.158C241.792 138.262 244.586 137.664 246.654 139.286C250.481 142.295 246.36 143.794 246.36 143.794C246.36 143.794 246.59 143.77 246.962 143.706C250.187 142.442 252.373 140.56 249.628 138.59V138.59Z" fill="#F97F06"/>
<path fill-rule="evenodd" clip-rule="evenodd" d="M239.808 138.962C239.808 138.962 244.072 134.611 249.609 138.59C255.147 142.569 240.548 146.205 237.819 145.088C235.089 143.971 239.808 138.962 239.808 138.962Z" stroke="#232323" stroke-width="0.3"/>
<path d="M238.431 142.628C238.431 142.628 247.438 146.299 250.153 156.061C252.868 165.823 242.753 163.191 242.753 163.191C242.753 163.191 237.475 151.636 231.972 150.744C226.468 149.852 234.358 141.457 238.431 142.628V142.628Z" fill="#F7BE08"/>
<path opacity="0.62" d="M238.431 142.628C237.784 142.471 237.107 142.489 236.47 142.682C235.101 143.308 233.797 144.067 232.575 144.946C230.678 146.666 229.458 148.866 230.453 150.023C233.074 151.047 239.004 152.963 242.273 151.003C246.654 149.121 251.094 160.848 246.232 163.47C248.864 163.264 251.77 161.833 250.153 156.046C247.438 146.299 238.431 142.628 238.431 142.628V142.628Z" fill="#F97F06"/>
<path fill-rule="evenodd" clip-rule="evenodd" d="M238.431 142.628C238.431 142.628 247.438 146.299 250.153 156.061C252.868 165.823 242.753 163.191 242.753 163.191C242.753 163.191 237.475 151.636 231.972 150.744C226.468 149.852 234.358 141.457 238.431 142.628V142.628Z" stroke="#232323" stroke-width="0.3"/>
<path d="M241.646 146.828C241.646 146.828 245.473 150.597 244.586 151.89C243.699 153.184 239.587 148.313 239.587 148.313L241.646 146.828Z" fill="#F7BE08" stroke="#232323" stroke-width="0.3"/>
<path d="M232.786 144.206C232.786 144.206 237.044 139.854 242.587 143.834C248.129 147.813 233.506 151.454 230.776 150.332C228.047 149.21 232.786 144.206 232.786 144.206Z" fill="#F7BE08"/>
<path opacity="0.62" d="M242.602 143.834C237.044 139.854 232.8 144.206 232.8 144.206C232.8 144.206 232.732 144.275 232.619 144.402C234.761 143.505 237.559 142.907 239.622 144.53C243.449 147.538 239.328 149.038 239.328 149.038C239.328 149.038 239.563 149.038 239.931 148.95C243.16 147.676 245.346 145.804 242.602 143.834V143.834Z" fill="#F97F06"/>
<path fill-rule="evenodd" clip-rule="evenodd" d="M232.786 144.206C232.786 144.206 237.044 139.854 242.587 143.834C248.129 147.813 233.506 151.454 230.776 150.332C228.047 149.21 232.786 144.206 232.786 144.206Z" stroke="#232323" stroke-width="0.3"/>
<path d="M230.585 149.062C230.585 149.062 239.588 152.728 242.308 162.49C245.027 172.252 234.908 169.62 234.908 169.62C234.908 169.62 229.63 158.065 224.127 157.178C218.623 156.291 226.513 147.886 230.585 149.062V149.062Z" fill="#F7BE08"/>
<path opacity="0.62" d="M230.585 149.063C229.939 148.904 229.262 148.921 228.625 149.112C227.256 149.738 225.951 150.497 224.729 151.376C222.828 153.096 221.612 155.297 222.607 156.453C225.229 157.482 231.159 159.423 234.427 157.433C238.808 155.551 243.248 167.278 238.387 169.905C241.018 169.699 243.924 168.268 242.307 162.481C239.587 152.729 230.585 149.063 230.585 149.063V149.063Z" fill="#F97F06"/>
<path fill-rule="evenodd" clip-rule="evenodd" d="M230.585 149.062C230.585 149.062 239.588 152.728 242.308 162.49C245.027 172.252 234.908 169.62 234.908 169.62C234.908 169.62 229.63 158.065 224.127 157.178C218.623 156.291 226.513 147.886 230.585 149.062V149.062Z" stroke="#232323" stroke-width="0.3"/>
<path d="M233.795 153.258C233.795 153.258 237.622 157.026 236.76 158.32C235.897 159.614 231.761 154.743 231.761 154.743L233.795 153.258Z" fill="#F7BE08" stroke="#232323" stroke-width="0.3"/>
<path d="M224.94 150.616C224.94 150.616 229.198 146.265 234.741 150.244C240.283 154.223 225.66 157.864 222.93 156.742C220.201 155.62 224.94 150.616 224.94 150.616Z" fill="#F7BE08"/>
<path opacity="0.62" d="M234.755 150.263C229.198 146.284 224.954 150.636 224.954 150.636L224.773 150.832C226.914 149.935 229.713 149.337 231.776 150.959C235.603 153.968 231.482 155.468 231.482 155.468C231.482 155.468 231.712 155.468 232.085 155.384C235.314 154.115 237.5 152.233 234.755 150.263V150.263Z" fill="#F97F06"/>
<path fill-rule="evenodd" clip-rule="evenodd" d="M224.94 150.616C224.94 150.616 229.198 146.264 234.741 150.243C240.283 154.223 225.66 157.864 222.93 156.741C220.201 155.619 224.94 150.616 224.94 150.616Z" stroke="#232323" stroke-width="0.3"/>
<path d="M205.087 166.503L205.92 172.306Z" fill="#F7BE08"/>
<path d="M205.087 166.503L205.92 172.306" stroke="#232323" stroke-width="0.3" stroke-linecap="round"/>
<path d="M199.682 167.273L200.515 173.08Z" fill="#F7BE08"/>
<path d="M199.682 167.273L200.515 173.08" stroke="#232323" stroke-width="0.3" stroke-linecap="round"/>
<path d="M194.282 168.047L195.11 173.854Z" fill="#F7BE08"/>
<path d="M194.282 168.047L195.11 173.854" stroke="#232323" stroke-width="0.3" stroke-linecap="round"/>
<path d="M179.499 77.1205C179.344 76.6147 179.628 76.0788 180.134 75.9237L182.612 75.1636C183.118 75.0084 183.654 75.2928 183.809 75.7986V75.7986C183.964 76.3045 183.68 76.8403 183.174 76.9955L180.696 77.7556C180.19 77.9107 179.654 77.6264 179.499 77.1205V77.1205Z" fill="#F7BE08" stroke="#232323" stroke-width="0.3" stroke-linecap="round"/>
<path opacity="0.61" d="M122.528 111.167C119.73 128.657 121.627 146.632 140.464 151.239L140.636 151.273C139.435 148.676 139.078 145.613 139.254 142.393C130.266 138.223 122.455 128.412 122.528 111.167V111.167Z" fill="#8EECFF"/>
<path d="M64.3985 61.7887C65.0106 56.5579 62.8137 51.3931 58.621 48.2061C54.4284 45.0191 48.864 44.2842 43.9878 46.2736C44.1887 46.2736 44.3847 46.2736 44.5857 46.3128C51.3378 47.1001 56.6991 52.361 57.6139 59.097C58.5286 65.833 54.7645 72.3332 48.4669 74.8927C56.4351 75.5128 63.4696 69.7268 64.3985 61.7887V61.7887Z" fill="#959595"/>
<path d="M20.3773 90.9128L15.1436 94.0344C16.7943 94.8925 18.7708 94.8388 20.3724 93.8923L25.5964 90.7804C23.95 89.923 21.9782 89.973 20.3773 90.9128V90.9128Z" fill="#959595"/>
<path d="M52.6027 94.0199C52.2254 94.1326 51.848 94.2355 51.4707 94.3335C49.5689 94.8081 48.0704 96.2709 47.5503 98.1608L45.5215 105.732C45.2517 106.742 44.691 107.65 43.9092 108.344L46.4428 108.638C49.0796 108.939 51.5432 107.276 52.2499 104.718L54.2787 97.1268C54.5946 95.9586 55.2978 94.9322 56.2732 94.2159C55.1085 93.731 53.8124 93.6618 52.6027 94.0199V94.0199Z" fill="#959595"/>
<path d="M10.7129 47.1118L6.7925 47.2245C5.77658 47.2542 4.79034 47.5739 3.9502 48.1458L7.90492 48.0282C8.90874 47.9943 9.88238 47.6766 10.7129 47.1118V47.1118Z" fill="#959595"/>
<path d="M73.2441 77.1082C72.9157 77.7306 72.5678 78.3431 72.2051 78.9459C71.1808 80.5992 71.1265 82.676 72.063 84.3806L75.905 91.2413C77.1869 93.564 76.5882 96.474 74.4937 98.1021L71.377 100.498C73.2494 101.554 75.5699 101.396 77.2821 100.097L81.2025 97.0681C83.2971 95.44 83.8957 92.53 82.6139 90.2073L78.7719 83.3466C77.8354 81.642 77.8897 79.5652 78.914 77.9119C79.2831 77.3107 79.6311 76.6982 79.9578 76.0742C80.3855 75.2641 81.0067 74.5723 81.7661 74.0601L77.8457 74.1728C75.8957 74.2532 74.1389 75.3739 73.2441 77.1082V77.1082Z" fill="#959595"/>
<path d="M27.8407 26.9066C29.2559 28.2588 31.2896 28.7438 33.1627 28.1758C33.5417 28.068 33.919 27.9651 34.2947 27.8671C34.9918 27.69 35.6476 27.3788 36.2255 26.9507C35.6098 26.7001 35.0476 26.3342 34.5692 25.8726L28.9434 20.4232C27.0266 18.5784 24.0507 18.4078 21.9356 20.0214L21.1123 20.6535C21.514 20.871 21.8849 21.1413 22.2149 21.4572L27.8407 26.9066Z" fill="#959595"/>
<path d="M55.749 18.3017L55.9794 26.1425C56.0438 28.105 57.1702 29.8772 58.9197 30.7686C59.2676 30.9499 59.6107 31.1411 59.9488 31.3322C61.6399 32.3192 63.7315 32.3192 65.4227 31.3322L66.9271 30.4354C66.8438 30.3962 66.7605 30.3619 66.6772 30.3129C66.3391 30.1218 65.996 29.9306 65.6481 29.7493C63.9023 28.8538 62.7774 27.0841 62.7078 25.1232L62.4775 17.2824C62.4075 14.5997 60.3749 12.3771 57.7092 12.0682L52.7793 11.4948C51.2567 11.3151 49.7304 11.7989 48.5894 12.8229L50.9857 13.1022C53.6441 13.4125 55.6722 15.6263 55.749 18.3017V18.3017Z" fill="#959595"/>
<path d="M94.238 57.4226L86.6667 55.3987C84.7768 54.8785 83.314 53.3801 82.8394 51.4783C82.663 50.7971 82.4669 50.1208 82.2464 49.4544C81.6293 47.6073 82.0564 45.5709 83.3637 44.1275L88.6808 38.3302C90.4693 36.3632 90.5567 33.386 88.8866 31.3175L85.7552 27.4657C84.0695 25.4088 81.1356 24.8886 78.8455 26.2406L77.3459 27.1226C77.9947 27.4572 78.5671 27.9228 79.0268 28.4899L82.1631 32.3417C83.8444 34.4071 83.7547 37.3936 81.9524 39.3544L76.6353 45.1517C75.3297 46.5961 74.9045 48.6324 75.5229 50.4786C75.7385 51.1451 75.9345 51.8213 76.111 52.5025C76.5865 54.4038 78.0489 55.9018 79.9383 56.4229L87.5145 58.4468C90.0726 59.1535 91.7358 61.6171 91.4349 64.254L90.8616 69.1888C90.6788 70.7422 89.8268 72.1384 88.5289 73.0112L92.415 72.8985C95.0725 72.8088 97.2675 70.7947 97.5851 68.1548L98.1633 63.22C98.4586 60.5852 96.7941 58.1268 94.238 57.4226V57.4226Z" fill="#959595"/>
<path d="M46.9819 82.582C36.3526 81.346 28.036 72.8443 27.0342 62.1905C26.0324 51.5366 32.6186 41.6336 42.8311 38.438C33.9134 38.4569 25.8355 43.7035 22.1921 51.843C18.5488 59.9826 20.017 69.5021 25.9436 76.1656C31.8702 82.8291 41.1534 85.3979 49.6625 82.729C48.7669 82.7309 47.8719 82.6818 46.9819 82.582V82.582Z" fill="#CBCBCB"/>
<path d="M57.6701 62.8235C58.6211 54.6568 52.7719 47.2652 44.6052 46.3136C44.4043 46.3136 44.2083 46.3136 44.0074 46.2744C37.7087 48.8366 33.9465 55.3409 34.8661 62.0783C35.7857 68.8156 41.1533 74.0738 47.9082 74.8543C48.1091 74.8543 48.31 74.8543 48.511 74.8935C53.5368 72.8417 57.0468 68.2161 57.6701 62.8235V62.8235Z" fill="#CBCBCB"/>
<path fill-rule="evenodd" clip-rule="evenodd" d="M91.4542 64.264L90.8809 69.1989C90.7003 70.748 89.8541 72.1416 88.5629 73.0164L84.6131 73.1291C83.6057 73.1642 82.6288 73.4836 81.7953 74.0504L77.8749 74.1631C75.915 74.2358 74.1466 75.3598 73.2488 77.1034C72.9204 77.7258 72.5725 78.3384 72.2099 78.9411C71.1856 80.5944 71.1312 82.6713 72.0677 84.3758L75.9098 91.2366C77.1916 93.5592 76.593 96.4692 74.4984 98.0973L71.3817 100.494C70.9825 100.272 70.6122 100.002 70.279 99.69L64.6532 94.2406C63.2401 92.8848 61.2051 92.3976 59.3313 92.9665C58.9588 93.0792 58.5815 93.1821 58.1992 93.2801C57.4994 93.4694 56.8434 93.794 56.2684 94.2357C55.1052 93.752 53.811 93.6828 52.6028 94.0397C52.2255 94.1524 51.8481 94.2553 51.4708 94.3533C49.569 94.8279 48.0705 96.2907 47.5504 98.1806L45.5461 105.732C45.2763 106.742 44.7156 107.651 43.9338 108.344L41.5374 108.065C38.8951 107.757 36.8723 105.568 36.7741 102.91L36.5438 95.0688C36.4742 93.1079 35.3493 91.3381 33.6035 90.4427C33.2555 90.2565 32.9125 90.0702 32.5743 89.8791C30.8867 88.8857 28.793 88.8857 27.1054 89.8791L25.596 90.7808C23.9496 89.9233 21.9778 89.9733 20.3769 90.9131L15.1432 94.0348C14.4952 93.6989 13.9231 93.2335 13.4623 92.6675L10.3308 88.8157C8.658 86.7463 8.74542 83.7659 10.5367 81.7981L15.8341 76.0057C17.1397 74.5613 17.565 72.5251 16.9466 70.6788C16.726 70.0124 16.53 69.3361 16.3536 68.65C15.879 66.7482 14.4162 65.2498 12.5263 64.7296L4.95495 62.7008C2.39882 61.9943 0.736193 59.5337 1.03453 56.8985L1.61279 51.9637C1.79372 50.4109 2.644 49.0147 3.94054 48.1413L7.89527 48.0237C8.90244 47.9916 9.87974 47.6738 10.7131 47.1073L14.6335 46.9897C16.5937 46.918 18.3625 45.7937 19.2596 44.0493C19.5896 43.4253 19.9375 42.8128 20.3034 42.2116C21.3296 40.5571 21.3839 38.4779 20.4455 36.7721L16.6035 29.9113C15.3085 27.5907 15.909 24.6716 18.0149 23.0506L21.112 20.6542C21.5137 20.8717 21.8846 21.142 22.2146 21.4579L27.8649 26.9073C29.2801 28.2595 31.3139 28.7445 33.1869 28.1765C33.5626 28.0687 33.94 27.9658 34.3189 27.8678C35.016 27.6907 35.6718 27.3794 36.2497 26.9514C37.4136 27.4335 38.7077 27.501 39.9153 27.1425C40.2878 27.0347 40.6651 26.9318 41.0474 26.8338C42.9492 26.3592 44.4476 24.8964 44.9678 23.0065L46.9917 15.4596C47.2634 14.4494 47.8257 13.5412 48.6089 12.8477L51.0052 13.127C53.6469 13.4448 55.6616 15.6426 55.749 18.3019L55.945 26.084C56.0094 28.0464 57.1358 29.8186 58.8853 30.7101C59.2332 30.8914 59.5763 31.0825 59.9144 31.2737C61.6056 32.2607 63.6972 32.2607 65.3883 31.2737L66.8928 30.3769C68.54 31.2328 70.5118 31.181 72.1118 30.2396L77.3456 27.1229C77.9963 27.4632 78.5688 27.9356 79.0265 28.5098L82.1628 32.3616C83.8442 34.427 83.7544 37.4135 81.9521 39.3742L76.6546 45.1618C75.349 46.6062 74.9238 48.6424 75.5422 50.4886C75.7578 51.1551 75.9539 51.8314 76.1303 52.5126C76.6058 54.4139 78.0682 55.9119 79.9576 56.433L87.5338 58.4569C90.092 59.1636 91.7551 61.6272 91.4542 64.264ZM49.6625 82.7294C61.1444 82.7047 70.7932 74.096 72.1217 62.6911C73.0136 55.0636 69.9817 47.5033 64.0666 42.6056C58.1516 37.7079 50.1585 36.1394 42.8312 38.4384C33.9134 38.4573 25.8356 43.7039 22.1922 51.8434C18.5488 59.983 20.0171 69.5025 25.9437 76.166C31.8702 82.8295 41.1535 85.3983 49.6625 82.7294Z" fill="#CBCBCB"/>
<path fill-rule="evenodd" clip-rule="evenodd" d="M49.6085 74.9519C57.8308 74.9519 64.4963 68.2864 64.4963 60.0641C64.4963 51.8418 57.8308 45.1763 49.6085 45.1763C41.3862 45.1763 34.7207 51.8418 34.7207 60.0641C34.7207 68.2864 41.3862 74.9519 49.6085 74.9519Z" stroke="#231F20" stroke-width="0.3"/>
<path d="M44.9678 23.0063L45.1124 23.0461L45.1128 23.0446L44.9678 23.0063ZM41.0473 26.8336L41.011 26.6881L41.0101 26.6883L41.0473 26.8336ZM39.9153 27.1424L39.8736 26.9983L39.8718 26.9988L39.9153 27.1424ZM34.5933 25.8731L34.4892 25.9811L34.4897 25.9816L34.5933 25.8731ZM28.943 20.4238L29.0471 20.3158L29.047 20.3157L28.943 20.4238ZM21.9353 20.0219L21.8443 19.9026L21.8436 19.9032L21.9353 20.0219ZM18.0148 23.0504L18.1063 23.1693L18.1065 23.1691L18.0148 23.0504ZM16.6035 29.9112L16.4725 29.9843L16.4726 29.9845L16.6035 29.9112ZM20.4455 36.7719L20.5769 36.6996L20.5764 36.6986L20.4455 36.7719ZM20.3034 42.2115L20.1759 42.1324L20.1753 42.1335L20.3034 42.2115ZM19.2596 44.0492L19.127 43.9791L19.1262 43.9806L19.2596 44.0492ZM14.6335 46.9895L14.6379 47.1395L14.6389 47.1394L14.6335 46.9895ZM6.79261 47.2199L6.78821 47.0699L6.78755 47.0699L6.79261 47.2199ZM1.62255 51.9636L1.47363 51.9457L1.47357 51.9461L1.62255 51.9636ZM1.04429 56.8984L0.895309 56.8809L0.895243 56.8815L1.04429 56.8984ZM4.96472 62.7006L4.92476 62.8452L4.92589 62.8455L4.96472 62.7006ZM12.536 64.7295L12.5758 64.5848L12.5749 64.5846L12.536 64.7295ZM16.3634 68.6499L16.2178 68.6862L16.2181 68.6872L16.3634 68.6499ZM16.9563 70.6787L16.8139 70.7258L16.8141 70.7263L16.9563 70.6787ZM15.8439 76.0056L15.9545 76.1069L15.9552 76.1062L15.8439 76.0056ZM10.5366 81.798L10.426 81.6967L10.4257 81.697L10.5366 81.798ZM10.3308 88.8156L10.2141 88.9099L10.2144 88.9102L10.3308 88.8156ZM13.4622 92.6674L13.3458 92.762L13.3462 92.7625L13.4622 92.6674ZM20.372 93.8925L20.4482 94.0217L20.4488 94.0214L20.372 93.8925ZM27.1053 89.879L27.0292 89.7497L27.0285 89.7501L27.1053 89.879ZM32.5743 89.879L32.4982 90.0083L32.5005 90.0096L32.5743 89.879ZM33.6034 90.4425L33.5326 90.5748L33.535 90.576L33.6034 90.4425ZM36.5437 95.0686L36.6937 95.0642L36.6936 95.0633L36.5437 95.0686ZM36.7741 102.909L36.6241 102.914L36.6242 102.915L36.7741 102.909ZM41.5374 108.065L41.5548 107.916L41.5547 107.916L41.5374 108.065ZM46.4379 108.638L46.4205 108.787L46.4209 108.787L46.4379 108.638ZM52.245 104.718L52.3896 104.758L52.3899 104.757L52.245 104.718ZM54.2788 97.1269L54.1341 97.0871L54.1339 97.0881L54.2788 97.1269ZM58.1992 93.2996L58.2355 93.4451L58.2365 93.4449L58.1992 93.2996ZM59.3312 92.9859L59.3747 93.1295L59.3748 93.1295L59.3312 92.9859ZM64.6532 94.2601L64.7576 94.1523L64.757 94.1518L64.6532 94.2601ZM70.279 99.7095L70.1746 99.8172L70.175 99.8175L70.279 99.7095ZM77.2868 100.111L77.3777 100.231L77.3785 100.23L77.2868 100.111ZM81.2072 97.0828L81.2989 97.2015L81.2992 97.2012L81.2072 97.0828ZM82.6185 90.222L82.7499 90.1495L82.7494 90.1487L82.6185 90.222ZM78.7765 83.3613L78.6451 83.4335L78.6456 83.4346L78.7765 83.3613ZM78.9186 77.9266L79.0462 78.0056L79.0465 78.0051L78.9186 77.9266ZM79.9625 76.0889L80.0953 76.1585L80.0959 76.1574L79.9625 76.0889ZM84.5886 73.1486L84.5842 72.9986L84.5832 72.9987L84.5886 73.1486ZM92.4294 72.9231L92.4337 73.0731L92.4345 73.0731L92.4294 72.9231ZM97.5995 68.1794L97.7484 68.1973L97.7484 68.1969L97.5995 68.1794ZM98.1777 63.2446L98.3267 63.2621L98.3268 63.2614L98.1777 63.2446ZM94.2328 57.4375L94.2721 57.2927L94.2715 57.2926L94.2328 57.4375ZM86.6615 55.4135L86.6217 55.5582L86.6227 55.5585L86.6615 55.4135ZM82.8342 51.4931L82.9797 51.4568L82.9794 51.4555L82.8342 51.4931ZM82.2412 49.4692L82.3836 49.4221L82.3835 49.4217L82.2412 49.4692ZM83.3585 44.1423L83.248 44.0409L83.2473 44.0416L83.3585 44.1423ZM88.6756 38.345L88.7861 38.4464L88.7866 38.4459L88.6756 38.345ZM88.8814 31.3323L88.9981 31.2381L88.9978 31.2377L88.8814 31.3323ZM85.75 27.4805L85.8664 27.3859L85.866 27.3854L85.75 27.4805ZM78.8402 26.2554L78.764 26.1262L78.7635 26.1265L78.8402 26.2554ZM72.1069 30.264L72.1826 30.3935L72.1836 30.3929L72.1069 30.264ZM66.6379 30.264L66.7136 30.1345L66.7117 30.1334L66.6379 30.264ZM65.6088 29.7005L65.6781 29.5674L65.6773 29.567L65.6088 29.7005ZM62.6685 25.0744L62.5185 25.0788L62.5186 25.0797L62.6685 25.0744ZM62.4381 17.2335L62.5881 17.2291L62.5881 17.2284L62.4381 17.2335ZM57.7091 12.0683L57.7275 11.9195L57.7265 11.9193L57.7091 12.0683ZM52.7792 11.495L52.7965 11.346L52.7962 11.3459L52.7792 11.495ZM52.2352 37.5509L52.2178 37.6999L52.2178 37.6999L52.2352 37.5509ZM46.8221 15.3967L44.8227 22.968L45.1128 23.0446L47.1122 15.4733L46.8221 15.3967ZM44.8231 22.9665C44.3173 24.8042 42.8603 26.2266 41.011 26.6881L41.0837 26.9792C43.038 26.4915 44.5778 24.9882 45.1124 23.0461L44.8231 22.9665ZM41.0101 26.6883C40.6264 26.7867 40.2475 26.89 39.8736 26.9983L39.957 27.2865C40.328 27.1791 40.7038 27.0766 41.0846 26.9789L41.0101 26.6883ZM39.8718 26.9988C38.0505 27.5511 36.073 27.0795 34.697 25.7647L34.4897 25.9816C35.944 27.3712 38.034 27.8696 39.9588 27.2859L39.8718 26.9988ZM34.6975 25.7652L29.0471 20.3158L28.8389 20.5317L34.4892 25.9811L34.6975 25.7652ZM29.047 20.3157C27.077 18.4196 24.0182 18.2442 21.8443 19.9027L22.0262 20.1412C24.0824 18.5725 26.9756 18.7384 28.839 20.5318L29.047 20.3157ZM21.8436 19.9032L17.9231 22.9317L18.1065 23.1691L22.027 20.1406L21.8436 19.9032ZM17.9233 22.9316C15.7586 24.598 15.1413 27.5987 16.4725 29.9843L16.7345 29.8381C15.4757 27.5824 16.0594 24.745 18.1063 23.1693L17.9233 22.9316ZM16.4726 29.9845L20.3146 36.8452L20.5764 36.6986L16.7344 29.8379L16.4726 29.9845ZM20.3141 36.8442C21.2264 38.5026 21.1736 40.524 20.1759 42.1325L20.4309 42.2906C21.4856 40.59 21.5414 38.4529 20.5769 36.6996L20.3141 36.8442ZM20.1753 42.1335C19.8078 42.7372 19.4583 43.3524 19.127 43.9791L19.3922 44.1193C19.7207 43.498 20.0672 42.8881 20.4315 42.2895L20.1753 42.1335ZM19.1262 43.9806C18.2539 45.6768 16.534 46.7699 14.628 46.8396L14.6389 47.1394C16.6534 47.0658 18.4711 45.9104 19.393 44.1178L19.1262 43.9806ZM14.6291 46.8396L6.78821 47.0699L6.79702 47.3698L14.6379 47.1395L14.6291 46.8396ZM6.78755 47.0699C4.05617 47.1622 1.80002 49.2323 1.47363 51.9457L1.77148 51.9815C2.0802 49.415 4.21419 47.457 6.79768 47.3698L6.78755 47.0699ZM1.47357 51.9461L0.89531 56.8809L1.19327 56.9159L1.77153 51.981L1.47357 51.9461ZM0.895243 56.8815C0.588609 59.59 2.2975 62.1191 4.92476 62.8452L5.00467 62.5561C2.51967 61.8693 0.903308 59.4771 1.19334 56.9153L0.895243 56.8815ZM4.92589 62.8455L12.4972 64.8743L12.5749 64.5846L5.00354 62.5557L4.92589 62.8455ZM12.4962 64.8741C14.3339 65.3799 15.7563 66.8369 16.2178 68.6862L16.5089 68.6136C16.0212 66.6592 14.5179 65.1194 12.5758 64.5848L12.4962 64.8741ZM16.2181 68.6872C16.3953 69.3762 16.5922 70.0558 16.8139 70.7258L17.0987 70.6316C16.8794 69.9687 16.6843 69.2957 16.5086 68.6125L16.2181 68.6872ZM16.8141 70.7263C17.4153 72.5212 17.0019 74.5008 15.7326 75.905L15.9552 76.1062C17.2971 74.6215 17.7342 72.5287 17.0985 70.6311L16.8141 70.7263ZM15.7333 75.9042L10.426 81.6967L10.6472 81.8993L15.9545 76.1069L15.7333 75.9042ZM10.4257 81.697C8.58461 83.7196 8.49477 86.7829 10.2141 88.9099L10.4475 88.7213C8.82117 86.7095 8.90615 83.812 10.6475 81.899L10.4257 81.697ZM10.2144 88.9102L13.3458 92.762L13.5786 92.5728L10.4472 88.7209L10.2144 88.9102ZM13.3462 92.7625C15.0788 94.8766 18.0944 95.4113 20.4482 94.0217L20.2957 93.7633C18.0693 95.0777 15.2171 94.572 13.5783 92.5723L13.3462 92.7625ZM20.4488 94.0214L27.1821 90.0078L27.0285 89.7501L20.2952 93.7637L20.4488 94.0214ZM27.1814 90.0083C28.8221 89.0425 30.8575 89.0425 32.4982 90.0083L32.6504 89.7497C30.9158 88.7287 28.7639 88.7287 27.0292 89.7497L27.1814 90.0083ZM32.5005 90.0096C32.8401 90.2015 33.1843 90.3883 33.5326 90.5748L33.6742 90.3103C33.3267 90.1243 32.9848 89.9387 32.6481 89.7484L32.5005 90.0096ZM33.535 90.576C35.2324 91.4467 36.3261 93.1674 36.3938 95.074L36.6936 95.0633C36.6221 93.0482 35.4661 91.2293 33.6719 90.3091L33.535 90.576ZM36.3938 95.0731L36.6241 102.914L36.924 102.905L36.6937 95.0642L36.3938 95.0731ZM36.6242 102.915C36.7251 105.647 38.8042 107.898 41.52 108.214L41.5547 107.916C38.9859 107.617 37.0195 105.488 36.924 102.904L36.6242 102.915ZM41.52 108.214L46.4205 108.787L46.4553 108.489L41.5548 107.916L41.52 108.214ZM46.4209 108.787C49.1311 109.097 51.6633 107.387 52.3896 104.758L52.1005 104.678C51.4134 107.165 49.0184 108.782 46.4549 108.489L46.4209 108.787ZM52.3899 104.757L54.4237 97.1657L54.1339 97.0881L52.1002 104.679L52.3899 104.757ZM54.4234 97.1667C54.9292 95.329 56.3862 93.9066 58.2355 93.4451L58.1629 93.154C56.2085 93.6417 54.6687 95.145 54.1341 97.0871L54.4234 97.1667ZM58.2365 93.4449C58.6201 93.3465 58.9996 93.243 59.3747 93.1295L59.2878 92.8424C58.9179 92.9543 58.5428 93.0566 58.1619 93.1543L58.2365 93.4449ZM59.3748 93.1295C61.1968 92.5764 63.1754 93.0501 64.5493 94.3683L64.757 94.1518C63.3048 92.7585 61.2134 92.2578 59.2876 92.8424L59.3748 93.1295ZM64.5488 94.3678L70.1746 99.8172L70.3834 99.6017L64.7576 94.1523L64.5488 94.3678ZM70.175 99.8175C72.1451 101.714 75.2038 101.889 77.3777 100.231L77.1958 99.992C75.1396 101.561 72.2464 101.395 70.383 99.6014L70.175 99.8175ZM77.3785 100.23L81.2989 97.2015L81.1155 96.9641L77.1951 99.9926L77.3785 100.23ZM81.2992 97.2012C83.4521 95.5278 84.0674 92.5368 82.7499 90.1495L82.4872 90.2945C83.7334 92.5525 83.1514 95.3816 81.1151 96.9643L81.2992 97.2012ZM82.7494 90.1487L78.9074 83.288L78.6456 83.4346L82.4877 90.2953L82.7494 90.1487ZM78.908 83.289C77.9976 81.6319 78.0504 79.6129 79.0462 78.0056L78.7911 77.8476C77.7383 79.5469 77.6825 81.6815 78.6451 83.4335L78.908 83.289ZM79.0465 78.0051C79.4174 77.401 79.7671 76.7855 80.0953 76.1585L79.8296 76.0193C79.5045 76.6403 79.1582 77.2499 78.7908 77.8481L79.0465 78.0051ZM80.0959 76.1574C80.9673 74.4606 82.6877 73.3672 84.594 73.2985L84.5832 72.9987C82.5684 73.0713 80.7501 74.227 79.829 76.0204L80.0959 76.1574ZM84.5929 73.2985L92.4337 73.0731L92.4251 72.7732L84.5842 72.9986L84.5929 73.2985ZM92.4345 73.0731C95.1659 72.9808 97.422 70.9107 97.7484 68.1973L97.4505 68.1615C97.1418 70.728 95.0078 72.686 92.4243 72.7732L92.4345 73.0731ZM97.7484 68.1969L98.3267 63.2621L98.0287 63.2271L97.4505 68.162L97.7484 68.1969ZM98.3268 63.2614C98.6336 60.5438 96.9115 58.0089 94.2721 57.2927L94.1935 57.5822C96.69 58.2596 98.3188 60.6573 98.0287 63.2278L98.3268 63.2614ZM94.2715 57.2926L86.7002 55.2686L86.6227 55.5585L94.1941 57.5824L94.2715 57.2926ZM86.7013 55.2689C84.8636 54.7631 83.4412 53.3061 82.9797 51.4568L82.6886 51.5294C83.1763 53.4838 84.6796 55.0236 86.6217 55.5582L86.7013 55.2689ZM82.9794 51.4555C82.8022 50.7716 82.6053 50.0921 82.3836 49.4221L82.0988 49.5163C82.3181 50.1793 82.5133 50.8523 82.689 51.5307L82.9794 51.4555ZM82.3835 49.4217C81.7835 47.626 82.1988 45.6463 83.4697 44.243L83.2473 44.0416C81.9036 45.5252 81.4646 47.6182 82.0989 49.5167L82.3835 49.4217ZM83.4691 44.2437L88.7861 38.4464L88.5651 38.2436L83.248 44.0409L83.4691 44.2437ZM88.7866 38.4459C90.6248 36.4242 90.7146 33.3642 88.9981 31.2381L88.7647 31.4266C90.3883 33.4375 90.3033 36.3318 88.5646 38.2441L88.7866 38.4459ZM88.9978 31.2377L85.8664 27.3859L85.6336 27.5751L88.765 31.427L88.9978 31.2377ZM85.866 27.3854C84.1334 25.2713 81.1178 24.7366 78.764 26.1262L78.9165 26.3846C81.1429 25.0702 83.9952 25.5759 85.634 27.5756L85.866 27.3854ZM78.7635 26.1265L72.0302 30.1351L72.1836 30.3929L78.917 26.3843L78.7635 26.1265ZM72.0312 30.1345C70.3886 31.0944 68.3562 31.0944 66.7136 30.1345L66.5622 30.3935C68.2983 31.408 70.4465 31.408 72.1826 30.3935L72.0312 30.1345ZM66.7117 30.1334C66.3732 29.9421 66.0284 29.75 65.6781 29.5674L65.5395 29.8335C65.8851 30.0136 66.2263 30.2037 66.5641 30.3946L66.7117 30.1334ZM65.6773 29.567C63.9798 28.6963 62.8861 26.9756 62.8184 25.069L62.5186 25.0797C62.5901 27.0948 63.7462 28.9137 65.5403 29.8339L65.6773 29.567ZM62.8184 25.07L62.5881 17.2291L62.2882 17.2379L62.5185 25.0788L62.8184 25.07ZM62.5881 17.2284C62.4945 14.504 60.433 12.2524 57.7275 11.9195L57.6908 12.2172C60.2499 12.5321 62.1997 14.6618 62.2882 17.2387L62.5881 17.2284ZM57.7265 11.9193L52.7965 11.346L52.7619 11.644L57.6918 12.2173L57.7265 11.9193ZM52.7962 11.3459C50.0783 11.036 47.5409 12.7561 46.8224 15.3956L47.1119 15.4744C47.7915 12.9778 50.1914 11.3509 52.7622 11.644L52.7962 11.3459ZM71.9725 62.6732C70.5311 75.0239 59.3505 83.8676 46.9999 82.4265L46.9651 82.7245C59.4803 84.1848 70.8099 75.2232 72.2705 62.708L71.9725 62.6732ZM46.9999 82.4265C34.6492 80.9853 25.8052 69.805 27.2461 57.4543L26.9481 57.4195C25.488 69.9348 34.4499 81.2641 46.9651 82.7245L46.9999 82.4265ZM27.2461 57.4543C28.6869 45.1036 39.867 36.2593 52.2178 37.6999L52.2525 37.4019C39.7372 35.9422 28.4081 44.9043 26.9481 57.4195L27.2461 57.4543ZM52.2178 37.6999C58.1492 38.3917 63.5628 41.4116 67.2676 46.095L67.5028 45.9089C63.7487 41.163 58.263 38.103 52.2525 37.4019L52.2178 37.6999ZM67.2676 46.095C70.9723 50.7785 72.6648 56.7419 71.9725 62.6732L72.2705 62.708C72.972 56.6976 71.257 50.6548 67.5028 45.9089L67.2676 46.095Z" fill="#231F20"/>
<path d="M14.0651 49.905C14.0651 49.905 4.55804 48.3026 3.94057 52.2524C3.3231 56.2022 11.2277 50.7822 12.3401 53.1149C13.4525 55.4475 17.7797 50.2236 14.0651 49.905V49.905Z" fill="white"/>
<path d="M5.30294 56.4472C5.30294 56.4472 6.51337 55.3397 7.32686 57.3146C8.14035 59.2895 4.08761 57.5596 5.30294 56.4472Z" fill="white"/>
<path d="M19.1324 24.4717C19.1324 24.4717 16.9761 27.412 20.2154 30.7689C23.4546 34.1257 20.4898 23.9767 19.1324 24.4717V24.4717Z" fill="white"/>
<path d="M18.015 78.7991C18.015 78.7991 10.2379 83.4791 11.8452 86.5762C13.4526 89.6733 14.0652 81.8864 16.29 83.2439C18.5149 84.6013 22.0922 77.4416 18.015 78.7991Z" fill="white"/>
<path d="M21.1069 77.1915C21.1069 77.1915 21.3961 75.2313 23.9443 75.9908C26.4926 76.7504 22.0919 78.4264 21.1069 77.1915Z" fill="white"/>
<path d="M40.8611 53.7423C40.8611 53.7423 35.5538 58.0548 38.9009 64.352C42.2479 70.6492 44.6737 64.597 42.8997 62.0046C41.1257 59.4123 45.5558 51.1353 40.8611 53.7423Z" fill="white"/>
<path d="M45.4286 66.5771C45.4286 66.5771 41.7728 69.2871 43.9094 70.3996C46.046 71.512 49.0108 68.0571 45.4286 66.5771Z" fill="white"/>
<path d="M38.764 96.8278C38.4748 97.0581 37.0341 103.762 38.764 103.811C40.4939 103.86 39.9989 95.8379 38.764 96.8278Z" fill="white"/>
<path d="M48.5843 19.6543C48.5843 19.6543 46.9279 22.2222 47.7757 23.658C48.6235 25.0939 51.0003 20.8647 48.5843 19.6543Z" fill="white"/>
<path d="M73.087 32.8662C73.087 32.8662 70.4946 33.4837 70.7445 35.3165C70.9944 37.1493 73.087 32.8662 73.087 32.8662Z" fill="white"/>
<path d="M79.3844 60.059C79.3844 60.059 82.0552 58.3487 83.3048 61.1028C84.5544 63.8569 78.2131 63.5188 79.3844 60.059Z" fill="white"/>
<path d="M64.4964 84.3556C64.4964 84.3556 62.2226 86.5903 62.9625 87.6341C63.7025 88.6779 67.1427 84.1057 64.4964 84.3556Z" fill="white"/>
<path d="M24.4742 54.791C23.4059 59.7651 23.0629 66.3269 26.2923 71.7175" stroke="white" stroke-width="0.3" stroke-linecap="round"/>
<path d="M26.939 47.1123C26.4747 48.1417 26.0658 49.1952 25.7139 50.2682" stroke="white" stroke-width="0.3" stroke-linecap="round"/>
<path d="M40.3667 84.3462C42.1529 85.3624 44.196 85.8374 46.2473 85.7134" stroke="white" stroke-width="0.3" stroke-linecap="round"/>
<path d="M14.6826 90.1733C14.6826 90.1733 15.5892 93.6576 18.4266 92.0747" stroke="white" stroke-width="0.3" stroke-linecap="round"/>
<path d="M41.7236 105.84C41.7236 105.84 49.192 107.712 50.0888 103.811" stroke="white" stroke-width="0.3" stroke-linecap="round"/>
<path d="M68.0249 92.4858L71.3769 96.7395" stroke="white" stroke-width="0.3" stroke-linecap="round"/>
<path d="M13.2026 61.8823C13.2026 61.8823 18.015 63.4897 18.015 65.9596" stroke="white" stroke-width="0.3" stroke-linecap="round"/>
<path d="M21.6758 23.1143C21.6758 23.1143 25.1062 20.3798 26.939 21.7471" stroke="white" stroke-width="0.3" stroke-linecap="round"/>
<path d="M77.5169 143.883C80.4419 138.967 78.8375 132.611 73.9297 129.671C72.4345 128.77 70.7346 128.264 68.99 128.201C69.1125 128.265 69.2399 128.324 69.3575 128.397C73.4298 130.824 75.3387 135.704 73.9947 140.25C72.6506 144.796 68.3957 147.853 63.6582 147.676C68.5471 150.336 74.6638 148.661 77.5169 143.883Z" fill="#959595"/>
<path d="M41.2091 149.817L36.9897 150.307C37.7908 151.33 39.0666 151.861 40.3564 151.709L44.566 151.219C43.7604 150.208 42.4941 149.68 41.2091 149.817V149.817Z" fill="#959595"/>
<path d="M60.8063 161.005C60.5367 160.966 60.2672 160.927 59.9977 160.878C58.6541 160.637 57.2851 161.139 56.4154 162.191L52.9605 166.425C52.5001 166.991 51.883 167.409 51.1865 167.626L52.7155 168.537C54.3086 169.492 56.3612 169.131 57.5327 167.689L60.9876 163.455C61.5201 162.802 62.2603 162.351 63.085 162.176C62.4823 161.536 61.6777 161.122 60.8063 161.005V161.005Z" fill="#959595"/>
<path d="M47.5796 119.209L45.051 118.155C44.3953 117.885 43.6764 117.807 42.978 117.93L45.5263 118.983C46.1749 119.254 46.8877 119.332 47.5796 119.209V119.209Z" fill="#959595"/>
<path d="M78.7814 156.149C78.3942 156.448 77.9973 156.742 77.5954 157.016C76.465 157.776 75.8363 159.09 75.9538 160.446L76.4438 165.906C76.604 167.755 75.387 169.443 73.5819 169.875L70.916 170.507C71.8001 171.718 73.3232 172.282 74.7825 171.938L78.1541 171.139C79.9592 170.707 81.1762 169.019 81.016 167.17L80.526 161.711C80.4127 160.353 81.0427 159.041 82.1725 158.28C82.5744 158.006 82.9713 157.712 83.3585 157.413C83.8618 157.02 84.4543 156.758 85.0835 156.649L82.5695 155.605C81.3013 155.088 79.8529 155.296 78.7814 156.149V156.149Z" fill="#959595"/>
<path d="M64.2464 111.255C64.7582 112.52 65.9118 113.411 67.2651 113.588C67.5346 113.622 67.8042 113.666 68.0737 113.71C68.5612 113.793 69.06 113.783 69.5439 113.681C69.2247 113.344 68.9719 112.95 68.799 112.519L66.78 107.447C66.0932 105.722 64.2443 104.762 62.4381 105.193L61.7373 105.36C61.9342 105.613 62.0988 105.889 62.2274 106.183L64.2464 111.255Z" fill="#959595"/>
<path d="M84.4414 113.734L82.3489 118.762C81.8307 120.027 82.0389 121.473 82.8929 122.54C83.0595 122.756 83.2261 122.977 83.3829 123.197C84.1798 124.305 85.5107 124.898 86.8672 124.751L88.0923 124.643C88.0473 124.596 88.0047 124.547 87.9649 124.496C87.8081 124.275 87.6415 124.055 87.4748 123.839C86.6209 122.772 86.4127 121.326 86.9309 120.061L89.0234 115.013C89.733 113.299 89.078 111.323 87.4846 110.372L84.5149 108.594C83.5952 108.047 82.4859 107.921 81.4668 108.246L82.9125 109.108C84.4947 110.061 85.1443 112.026 84.4414 113.734V113.734Z" fill="#959595"/>
<path d="M97.7414 149.636L93.4828 146.206C92.4309 145.336 91.929 143.967 92.1695 142.623C92.2528 142.133 92.3214 141.643 92.3753 141.153C92.5094 139.803 93.3619 138.63 94.6051 138.085L99.6624 135.915C101.373 135.181 102.284 133.301 101.799 131.504L100.907 128.157C100.428 126.364 98.7082 125.192 96.8642 125.403L95.6587 125.545C95.9757 125.942 96.206 126.401 96.3349 126.893L97.2268 130.24C97.7162 132.037 96.804 133.92 95.0902 134.65L90.0525 136.806C88.8093 137.351 87.9568 138.524 87.8227 139.874C87.7688 140.364 87.7002 140.854 87.6169 141.344C87.3764 142.688 87.8783 144.057 88.9302 144.927L93.1692 148.382C94.6066 149.555 94.9673 151.605 94.017 153.199L92.2381 156.168C91.682 157.107 90.7411 157.754 89.6653 157.938L92.1695 158.972C93.8827 159.684 95.8593 159.031 96.8103 157.438L98.5892 154.463C99.5452 152.867 99.1841 150.811 97.7414 149.636V149.636Z" fill="#959595"/>
<path d="M60.5076 152.126C54.1 148.304 51.2392 140.521 53.6464 133.459C56.0535 126.397 63.0724 121.982 70.4801 122.869C64.8071 120.338 58.1774 121.366 53.5374 125.497C48.8975 129.627 47.1087 136.093 48.9659 142.021C50.8232 147.949 55.9819 152.239 62.1492 152.983C61.5855 152.73 61.0373 152.444 60.5076 152.126V152.126Z" fill="#CBCBCB"/>
<path d="M72.9453 142.618C75.8703 137.702 74.2659 131.346 69.3581 128.407C69.2405 128.333 69.1131 128.275 68.9906 128.211C64.2567 128.04 60.0078 131.096 58.6638 135.639C57.3199 140.181 59.2218 145.057 63.2864 147.49C63.4089 147.563 63.5363 147.617 63.6588 147.686C67.4482 147.822 71.0098 145.879 72.9453 142.618Z" fill="#CBCBCB"/>
<path fill-rule="evenodd" clip-rule="evenodd" d="M94.0173 153.189L92.2384 156.159C91.6823 157.104 90.737 157.755 89.6558 157.938L87.1124 156.879C86.461 156.613 85.7473 156.536 85.0542 156.659L82.5402 155.615C81.2734 155.1 79.8275 155.308 78.757 156.159C78.3699 156.458 77.9729 156.752 77.5711 157.026C76.4406 157.786 75.8119 159.1 75.9294 160.456L76.4195 165.916C76.5797 167.765 75.3626 169.453 73.5575 169.885L70.8917 170.517C70.6933 170.265 70.5285 169.989 70.4016 169.694L68.3826 164.617C67.8676 163.353 66.7126 162.464 65.359 162.289L65.3583 162.289C65.089 162.25 64.8197 162.211 64.5504 162.162C64.0626 162.079 63.5636 162.091 63.0802 162.196C62.4775 161.556 61.6729 161.142 60.8015 161.025C60.5319 160.986 60.2624 160.947 59.9929 160.898C58.6493 160.657 57.2803 161.159 56.4106 162.211L52.9557 166.445C52.4953 167.011 51.8782 167.429 51.1817 167.646L49.741 166.783C48.1451 165.832 47.4897 163.853 48.2022 162.137L50.2947 157.09C50.8097 155.825 50.6017 154.38 49.7508 153.312C49.6921 153.233 49.6329 153.155 49.5734 153.077C49.4689 152.939 49.3638 152.8 49.2607 152.66C48.4667 151.551 47.1366 150.957 45.7813 151.106L44.566 151.243C43.7615 150.231 42.495 149.701 41.2091 149.837L36.9898 150.327C36.674 149.929 36.4423 149.47 36.3086 148.979L35.4216 145.632C34.9368 143.835 35.8476 141.955 37.5582 141.222L42.596 139.056C43.8398 138.512 44.6927 137.339 44.8257 135.988C44.8747 135.498 44.9433 135.008 45.0267 134.518C45.269 133.173 44.767 131.801 43.7133 130.931L39.4793 127.5C38.0399 126.328 37.679 124.277 38.6315 122.683L40.4251 119.689C40.9852 118.755 41.9244 118.111 42.9978 117.925L45.5461 118.978C46.1947 119.249 46.9075 119.327 47.5994 119.204L50.1183 120.248C51.3835 120.763 52.8281 120.555 53.8966 119.704C54.2838 119.4 54.6807 119.111 55.0874 118.831C56.2146 118.069 56.8423 116.757 56.7291 115.401L56.2391 109.942C56.0941 108.098 57.319 106.425 59.1206 106.007L61.7865 105.375C61.9833 105.628 62.1479 105.904 62.2765 106.198L64.2955 111.27C64.8074 112.535 65.9609 113.426 67.3143 113.603C67.5838 113.637 67.8533 113.681 68.1228 113.725L68.1229 113.725C68.6104 113.808 69.1092 113.798 69.593 113.696C70.1945 114.335 70.9972 114.748 71.8669 114.867C72.1364 114.901 72.4059 114.945 72.6755 114.989C74.0209 115.235 75.3938 114.732 76.2626 113.676L79.693 109.442C80.1547 108.878 80.7715 108.463 81.467 108.246L82.9127 109.109C84.506 110.06 85.161 112.035 84.4514 113.75L82.3589 118.797C81.8407 120.062 82.0489 121.508 82.9029 122.575C83.0695 122.791 83.2361 123.012 83.3929 123.232C84.1898 124.34 85.5208 124.933 86.8772 124.786L88.0925 124.643C88.9003 125.643 90.1627 126.16 91.4396 126.016L95.6589 125.525C95.9759 125.923 96.2063 126.382 96.3352 126.873L97.2271 130.22C97.7164 132.018 96.8043 133.901 95.0905 134.631L90.0527 136.797C88.8096 137.341 87.9571 138.514 87.823 139.864C87.7691 140.355 87.7005 140.845 87.6172 141.335C87.3767 142.678 87.8786 144.047 88.9305 144.917L93.1695 148.372C94.6069 149.546 94.9676 151.595 94.0173 153.189ZM62.1635 152.983C69.4702 156.252 78.067 153.538 82.1724 146.667H82.1871C84.9324 142.071 85.1644 136.397 82.8035 131.593C80.4427 126.788 75.81 123.505 70.4944 122.87C64.8214 120.338 58.1916 121.367 53.5517 125.497C48.9118 129.628 47.123 136.094 48.9802 142.022C50.8375 147.949 55.9962 152.239 62.1635 152.983Z" fill="#CBCBCB"/>
<path fill-rule="evenodd" clip-rule="evenodd" d="M68.6078 148.94C74.3402 148.94 78.9872 144.293 78.9872 138.561C78.9872 132.829 74.3402 128.182 68.6078 128.182C62.8755 128.182 58.2285 132.829 58.2285 138.561C58.2285 144.293 62.8755 148.94 68.6078 148.94Z" stroke="#231F20" stroke-width="0.3"/>
<path d="M76.2528 113.686L76.3687 113.781L76.3694 113.78L76.2528 113.686ZM72.6657 114.999L72.6926 114.852L72.6899 114.851L72.6657 114.999ZM71.8571 114.877L71.8378 115.026L71.8381 115.026L71.8571 114.877ZM68.8383 112.544L68.699 112.6L68.6992 112.6L68.8383 112.544ZM66.8193 107.472L66.68 107.528L66.68 107.528L66.8193 107.472ZM62.4774 105.218L62.5121 105.364L62.5123 105.364L62.4774 105.218ZM59.1108 106.017L59.1451 106.163L59.1454 106.163L59.1108 106.017ZM56.2391 109.942L56.0895 109.953L56.0897 109.955L56.2391 109.942ZM56.7291 115.401L56.8786 115.389L56.8785 115.388L56.7291 115.401ZM55.0874 118.832L55.0034 118.707L55.0025 118.708L55.0874 118.832ZM53.8966 119.704L53.804 119.586L53.8032 119.586L53.8966 119.704ZM50.1183 120.248L50.0607 120.386L50.0618 120.387L50.1183 120.248ZM45.0708 118.15L45.1283 118.012L45.128 118.012L45.0708 118.15ZM40.4251 119.689L40.2964 119.612L40.2964 119.612L40.4251 119.689ZM38.6315 122.683L38.5028 122.606L38.5027 122.606L38.6315 122.683ZM39.4793 127.501L39.3845 127.617L39.3848 127.617L39.4793 127.501ZM43.7133 130.931L43.8089 130.815L43.8077 130.814L43.7133 130.931ZM45.0267 134.518L44.879 134.492L44.8788 134.493L45.0267 134.518ZM44.8257 135.988L44.6765 135.973L44.6765 135.974L44.8257 135.988ZM42.596 139.056L42.6552 139.194L42.6561 139.193L42.596 139.056ZM37.5582 141.222L37.6174 141.36L37.6175 141.36L37.5582 141.222ZM35.4216 145.633L35.5666 145.594L35.5664 145.593L35.4216 145.633ZM36.3086 148.98L36.1636 149.018L36.1637 149.018L36.3086 148.98ZM40.3564 151.729L40.3394 151.58L40.339 151.58L40.3564 151.729ZM45.7813 151.106L45.765 150.957L45.7642 150.957L45.7813 151.106ZM49.2607 152.66L49.1388 152.747L49.1398 152.749L49.2607 152.66ZM49.7508 153.312L49.6307 153.402L49.6334 153.405L49.7508 153.312ZM50.2947 157.09L50.4333 157.147L50.4337 157.147L50.2947 157.09ZM48.2022 162.138L48.3407 162.195L48.3408 162.195L48.2022 162.138ZM49.741 166.783L49.8179 166.654L49.8178 166.654L49.741 166.783ZM52.7107 168.557L52.7878 168.429L52.7876 168.428L52.7107 168.557ZM57.5279 167.709L57.4117 167.615L57.4115 167.615L57.5279 167.709ZM60.9828 163.475L60.8672 163.38L60.8666 163.381L60.9828 163.475ZM64.5651 162.162L64.5919 162.014L64.5915 162.014L64.5651 162.162ZM65.3737 162.289L65.3521 162.438L65.3545 162.438L65.3737 162.289ZM68.3973 164.617L68.5367 164.562L68.5362 164.561L68.3973 164.617ZM70.4163 169.694L70.5557 169.639L70.5557 169.639L70.4163 169.694ZM74.7533 171.948L74.7187 171.802L74.7185 171.802L74.7533 171.948ZM78.1248 171.15L78.1594 171.296L78.1598 171.295L78.1248 171.15ZM80.9868 167.18L81.1362 167.167L81.1362 167.167L80.9868 167.18ZM80.4967 161.721L80.3472 161.733L80.3473 161.734L80.4967 161.721ZM82.1433 158.291L82.2271 158.415L82.2279 158.414L82.1433 158.291ZM83.3292 157.423L83.4218 157.541L83.4225 157.541L83.3292 157.423ZM87.1124 156.879L87.1699 156.741L87.1689 156.74L87.1124 156.879ZM92.16 158.972L92.2176 158.833L92.2174 158.833L92.16 158.972ZM96.8008 157.438L96.672 157.361L96.672 157.361L96.8008 157.438ZM98.5797 154.463L98.7084 154.54L98.7085 154.54L98.5797 154.463ZM97.7319 149.646L97.8267 149.53L97.8263 149.529L97.7319 149.646ZM93.4831 146.206L93.3875 146.322L93.3887 146.322L93.4831 146.206ZM92.1698 142.624L92.3174 142.65L92.3176 142.649L92.1698 142.624ZM92.3756 141.153L92.5247 141.17L92.5249 141.168L92.3756 141.153ZM94.6053 138.086L94.5462 137.948L94.5452 137.948L94.6053 138.086ZM99.6627 135.915L99.6036 135.777L99.6035 135.777L99.6627 135.915ZM101.799 131.504L101.654 131.543L101.654 131.543L101.799 131.504ZM100.907 128.157L101.052 128.119L101.052 128.119L100.907 128.157ZM96.8645 125.403L96.8474 125.254L96.8473 125.254L96.8645 125.403ZM91.4396 126.03L91.4558 126.18L91.4568 126.179L91.4396 126.03ZM87.9553 124.477L87.8331 124.564L87.8336 124.565L87.9553 124.477ZM87.4653 123.82L87.584 123.729L87.5824 123.727L87.4653 123.82ZM86.9213 120.042L86.7827 119.985L86.7825 119.985L86.9213 120.042ZM89.0138 114.994L89.1524 115.052L89.1524 115.052L89.0138 114.994ZM87.4751 110.354L87.398 110.482L87.3982 110.482L87.4751 110.354ZM84.5053 108.575L84.5824 108.446L84.5813 108.445L84.5053 108.575ZM82.1728 146.696L82.3016 146.773L82.3228 146.737V146.696H82.1728ZM76.7136 125.026L76.7906 124.897L76.7906 124.897L76.7136 125.026ZM82.1728 146.666L82.0439 146.59L82.0228 146.625V146.666H82.1728ZM79.5667 109.357L76.1363 113.592L76.3694 113.78L79.7998 109.546L79.5667 109.357ZM76.137 113.591C75.3028 114.605 73.9845 115.088 72.6926 114.852L72.6387 115.147C74.0377 115.402 75.4653 114.88 76.3687 113.781L76.137 113.591ZM72.6899 114.851C72.4208 114.807 72.1486 114.763 71.876 114.728L71.8381 115.026C72.1046 115.06 72.3715 115.103 72.6414 115.147L72.6899 114.851ZM71.8763 114.728C70.5763 114.56 69.4681 113.704 68.9774 112.488L68.6992 112.6C69.2305 113.916 70.4303 114.843 71.8378 115.026L71.8763 114.728ZM68.9777 112.489L66.9587 107.417L66.68 107.528L68.699 112.6L68.9777 112.489ZM66.9587 107.417C66.2444 105.622 64.3214 104.624 62.4426 105.072L62.5123 105.364C64.2461 104.95 66.0208 105.871 66.68 107.528L66.9587 107.417ZM62.4428 105.072L59.0762 105.871L59.1454 106.163L62.5121 105.364L62.4428 105.072ZM59.0764 105.871C57.2108 106.31 55.9431 108.042 56.0895 109.953L56.3886 109.931C56.2535 108.167 57.4234 106.568 59.1451 106.163L59.0764 105.871ZM56.0897 109.955L56.5797 115.415L56.8785 115.388L56.3885 109.929L56.0897 109.955ZM56.5796 115.414C56.6883 116.716 56.0856 117.975 55.0034 118.707L55.1715 118.956C56.3436 118.163 56.9963 116.799 56.8786 115.389L56.5796 115.414ZM55.0025 118.708C54.5935 118.989 54.194 119.28 53.804 119.586L53.9892 119.822C54.3736 119.52 54.7679 119.233 55.1724 118.955L55.0025 118.708ZM53.8032 119.586C52.7771 120.404 51.3898 120.603 50.1749 120.109L50.0618 120.387C51.3772 120.922 52.8791 120.706 53.9901 119.821L53.8032 119.586ZM50.1759 120.109L45.1283 118.012L45.0132 118.289L50.0607 120.386L50.1759 120.109ZM45.128 118.012C43.3433 117.275 41.2886 117.956 40.2964 119.612L40.5537 119.766C41.4696 118.238 43.3662 117.609 45.0136 118.289L45.128 118.012ZM40.2964 119.612L38.5028 122.606L38.7601 122.76L40.5537 119.766L40.2964 119.612ZM38.5027 122.606C37.512 124.264 37.8875 126.397 39.3845 127.617L39.574 127.384C38.1924 126.259 37.8459 124.29 38.7602 122.76L38.5027 122.606ZM39.3848 127.617L43.6189 131.047L43.8077 130.814L39.5737 127.384L39.3848 127.617ZM43.6178 131.047C44.6296 131.883 45.1118 133.2 44.879 134.492L45.1743 134.545C45.4263 133.146 44.9043 131.721 43.8089 130.815L43.6178 131.047ZM44.8788 134.493C44.795 134.986 44.7259 135.479 44.6765 135.973L44.975 136.003C45.0236 135.517 45.0917 135.03 45.1745 134.543L44.8788 134.493ZM44.6765 135.974C44.5487 137.27 43.73 138.397 42.5359 138.919L42.6561 139.193C43.9496 138.628 44.8366 137.408 44.975 136.003L44.6765 135.974ZM42.5367 138.918L37.499 141.084L37.6175 141.36L42.6552 139.194L42.5367 138.918ZM37.4991 141.084C35.7198 141.847 34.7725 143.802 35.2768 145.672L35.5664 145.593C35.1011 143.869 35.9753 142.064 37.6174 141.36L37.4991 141.084ZM35.2766 145.671L36.1636 149.018L36.4536 148.941L35.5666 145.594L35.2766 145.671ZM36.1637 149.018C36.662 150.885 38.4551 152.103 40.3739 151.878L40.339 151.58C38.5682 151.787 36.9134 150.664 36.4535 148.941L36.1637 149.018ZM40.3735 151.878L45.7984 151.255L45.7642 150.957L40.3394 151.58L40.3735 151.878ZM45.7977 151.256C47.0991 151.113 48.3764 151.683 49.1388 152.747L49.3827 152.573C48.5571 151.42 47.1741 150.803 45.765 150.957L45.7977 151.256ZM49.1398 152.749C49.3019 152.97 49.471 153.189 49.6308 153.402L49.8708 153.222C49.7071 153.003 49.543 152.791 49.3817 152.571L49.1398 152.749ZM49.6334 153.405C50.4506 154.431 50.6503 155.818 50.1558 157.033L50.4337 157.147C50.9691 155.831 50.7529 154.329 49.8681 153.218L49.6334 153.405ZM50.1562 157.033L48.0636 162.08L48.3408 162.195L50.4333 157.147L50.1562 157.033ZM48.0637 162.08C47.3226 163.865 48.0043 165.923 49.6642 166.912L49.8178 166.654C48.2859 165.741 47.6569 163.842 48.3407 162.195L48.0637 162.08ZM49.664 166.912L52.6338 168.686L52.7876 168.428L49.8179 166.654L49.664 166.912ZM52.6336 168.686C54.2907 169.679 56.4258 169.303 57.6443 167.804L57.4115 167.615C56.2871 168.998 54.3169 169.345 52.7878 168.429L52.6336 168.686ZM57.6441 167.804L61.099 163.57L60.8666 163.381L57.4117 167.615L57.6441 167.804ZM61.0984 163.571C61.9337 162.561 63.2483 162.079 64.5386 162.31L64.5915 162.014C63.1947 161.764 61.7714 162.286 60.8672 163.38L61.0984 163.571ZM64.5382 162.31C64.8108 162.359 65.083 162.399 65.3521 162.438L65.3953 162.141C65.1253 162.102 64.8584 162.063 64.5919 162.014L64.5382 162.31ZM65.3545 162.438C66.6545 162.606 67.7638 163.46 68.2584 164.674L68.5362 164.561C68.0009 163.247 66.8001 162.322 65.3928 162.141L65.3545 162.438ZM68.2579 164.673L70.2769 169.75L70.5557 169.639L68.5367 164.562L68.2579 164.673ZM70.2769 169.75C70.9892 171.543 72.9106 172.542 74.7881 172.094L74.7185 171.802C72.986 172.216 71.213 171.294 70.5557 169.639L70.2769 169.75ZM74.7879 172.094L78.1594 171.296L78.0903 171.004L74.7187 171.802L74.7879 172.094ZM78.1598 171.295C80.0371 170.846 81.3028 169.09 81.1362 167.167L80.8373 167.193C80.9911 168.968 79.8228 170.589 78.0899 171.004L78.1598 171.295ZM81.1362 167.167L80.6461 161.708L80.3473 161.734L80.8374 167.194L81.1362 167.167ZM80.6462 161.709C80.5375 160.405 81.1423 159.145 82.2271 158.415L82.0595 158.166C80.8846 158.957 80.2295 160.322 80.3472 161.733L80.6462 161.709ZM82.2279 158.414C82.6322 158.138 83.0319 157.847 83.4218 157.541L83.2366 157.305C82.8523 157.607 82.458 157.894 82.0587 158.167L82.2279 158.414ZM83.4225 157.541C84.4506 156.723 85.8393 156.524 87.056 157.018L87.1689 156.74C85.8519 156.205 84.3487 156.421 83.2359 157.306L83.4225 157.541ZM87.055 157.018L92.1025 159.11L92.2174 158.833L87.1699 156.741L87.055 157.018ZM92.1024 159.11C93.8843 159.852 95.9404 159.172 96.9296 157.515L96.672 157.361C95.7592 158.89 93.8619 159.517 92.2176 158.833L92.1024 159.11ZM96.9295 157.515L98.7084 154.54L98.4509 154.386L96.672 157.361L96.9295 157.515ZM98.7085 154.54C99.6969 152.882 99.3217 150.751 97.8267 149.53L97.637 149.762C99.0168 150.889 99.363 152.856 98.4508 154.386L98.7085 154.54ZM97.8263 149.529L93.5775 146.089L93.3887 146.322L97.6375 149.763L97.8263 149.529ZM93.5787 146.09C92.5685 145.255 92.0865 143.94 92.3174 142.65L92.0221 142.597C91.7721 143.994 92.2939 145.417 93.3875 146.322L93.5787 146.09ZM92.3176 142.649C92.4014 142.156 92.4705 141.663 92.5247 141.17L92.2265 141.137C92.1729 141.624 92.1047 142.111 92.0219 142.598L92.3176 142.649ZM92.5249 141.168C92.6536 139.872 93.472 138.746 94.6655 138.223L94.5452 137.948C93.2524 138.514 92.3658 139.734 92.2263 141.139L92.5249 141.168ZM94.6645 138.224L99.7218 136.053L99.6035 135.777L94.5462 137.948L94.6645 138.224ZM99.7218 136.053C101.501 135.29 102.448 133.334 101.944 131.465L101.654 131.543C102.12 133.268 101.246 135.073 99.6036 135.777L99.7218 136.053ZM101.944 131.466L101.052 128.119L100.762 128.196L101.654 131.543L101.944 131.466ZM101.052 128.119C100.554 126.253 98.7653 125.035 96.8474 125.254L96.8815 125.552C98.6517 125.35 100.303 126.475 100.762 128.196L101.052 128.119ZM96.8473 125.254L91.4224 125.881L91.4568 126.179L96.8817 125.552L96.8473 125.254ZM91.4234 125.881C90.1207 126.023 88.8424 125.453 88.0771 124.389L87.8336 124.565C88.662 125.716 90.0457 126.333 91.4558 126.18L91.4234 125.881ZM88.0776 124.39C87.9191 124.167 87.7512 123.945 87.584 123.729L87.3466 123.912C87.5126 124.127 87.6779 124.346 87.8331 124.564L88.0776 124.39ZM87.5824 123.727C86.7625 122.702 86.5625 121.313 87.0601 120.099L86.7825 119.985C86.2436 121.3 86.4602 122.804 87.3481 123.914L87.5824 123.727ZM87.0599 120.099L89.1524 115.052L88.8753 114.937L86.7827 119.985L87.0599 120.099ZM89.1524 115.052C89.8905 113.269 89.2092 111.214 87.5519 110.225L87.3982 110.482C88.9276 111.395 89.5564 113.291 88.8752 114.937L89.1524 115.052ZM87.5521 110.225L84.5824 108.446L84.4283 108.703L87.398 110.482L87.5521 110.225ZM84.5813 108.445C82.9145 107.466 80.7816 107.854 79.5665 109.358L79.7999 109.546C80.9216 108.158 82.8906 107.8 84.4293 108.704L84.5813 108.445ZM82.044 146.619C78.7969 152.055 72.5948 154.999 66.33 154.079L66.2864 154.376C72.6712 155.314 78.9922 152.313 82.3016 146.773L82.044 146.619ZM66.33 154.079C60.0653 153.159 54.9718 148.555 53.425 142.415L53.1341 142.489C54.7106 148.746 59.9016 153.438 66.2864 154.376L66.33 154.079ZM53.425 142.415C51.8782 136.275 54.1826 129.808 59.2637 126.029L59.0847 125.789C53.9062 129.64 51.5576 136.231 53.1341 142.489L53.425 142.415ZM59.2637 126.029C64.3447 122.251 71.2016 121.906 76.6366 125.154L76.7906 124.897C71.2514 121.586 64.2631 121.938 59.0847 125.789L59.2637 126.029ZM76.6366 125.154C84.0406 129.586 86.4596 139.176 82.0439 146.59L82.3017 146.743C86.802 139.187 84.3366 129.414 76.7906 124.897L76.6366 125.154ZM82.0228 146.666V146.696H82.3228V146.666H82.0228Z" fill="#231F20"/>
<path d="M48.9175 121.943C48.9175 121.943 43.326 118.204 41.8069 120.541C40.2877 122.879 46.8642 121.678 46.8985 123.482C46.9328 125.285 51.1865 123.207 48.9175 121.943Z" fill="white"/>
<path d="M41.4685 123.599C41.4685 123.599 42.5613 123.237 42.5123 124.727C42.4633 126.216 40.3806 123.957 41.4685 123.599Z" fill="white"/>
<path d="M59.4049 107.217C59.4049 107.217 57.185 108.486 58.2925 111.529C59.4 114.572 60.4095 107.29 59.4049 107.217Z" fill="white"/>
<path d="M43.1691 141.442C43.1691 141.442 36.8817 142.202 37.0239 144.623C37.166 147.044 39.778 142.275 40.8022 143.775C41.8264 145.275 46.1486 141.741 43.1691 141.442V141.442Z" fill="white"/>
<path d="M45.5903 141.305C45.5903 141.305 46.3401 140.129 47.7417 141.349C49.1432 142.569 45.8648 142.373 45.5903 141.305Z" fill="white"/>
<path d="M64.8545 132.038C64.8545 132.038 60.248 133.263 60.5666 138.222C60.8851 143.182 64.1636 140.026 63.7764 137.87C63.3893 135.713 68.5789 131.734 64.8545 132.038Z" fill="white"/>
<path d="M64.0802 141.506C64.0802 141.506 60.9781 142.182 62.017 143.5C63.056 144.819 65.9473 143.471 64.0802 141.506Z" fill="white"/>
<path d="M51.2064 158.834C50.9565 158.898 48.1289 162.755 49.2119 163.274C50.2949 163.794 52.2747 158.56 51.2064 158.834V158.834Z" fill="white"/>
<path d="M79.5067 112.573C79.5067 112.573 77.7082 113.729 77.8503 114.886C77.9924 116.042 80.6975 114.033 79.5067 112.573Z" fill="white"/>
<path d="M91.3119 127.976C91.3119 127.976 89.484 127.628 89.1116 128.877C88.7391 130.127 91.3119 127.976 91.3119 127.976Z" fill="white"/>
<path d="M87.5435 147.063C87.5435 147.063 89.7292 146.74 89.7439 148.852C89.7586 150.964 85.8088 148.93 87.5435 147.063Z" fill="white"/>
<path d="M71.1317 158.256C71.1317 158.256 69.049 159.03 69.2205 159.902C69.392 160.775 72.9008 158.859 71.1317 158.256Z" fill="white"/>
<path d="M37.7979 147.72C37.7979 147.72 37.3814 150.194 39.6356 150.003" stroke="white" stroke-width="0.3" stroke-linecap="round"/>
<path d="M61.4092 107.08C61.4092 107.08 64.3789 106.325 65.1483 107.717" stroke="white" stroke-width="0.3" stroke-linecap="round"/>
<path d="M137.804 44.0443C137.804 44.0443 137.529 49.6211 138.22 49.9249C138.911 50.2288 138.686 42.6623 137.804 44.0443Z" fill="white"/>
<path d="M138.191 51.2632C138.592 51.5291 138.77 52.0284 138.627 52.4883C138.455 53.3949 137.554 51.8659 138.191 51.2632Z" fill="white"/>
<path d="M134.932 34.3657C134.932 34.3657 133.589 34.9195 133.638 35.8702C133.687 36.8209 133.917 40.5698 133.917 40.5698" stroke="white" stroke-width="0.3" stroke-linecap="round"/>
<path d="M134.334 74.0554C134.334 74.0554 132.942 82.1021 131.555 84.8807C130.168 87.6593 132.942 89.4186 134.334 85.5276C135.726 81.6365 134.422 77.917 136.461 77.9709C138.499 78.0248 135.255 69.4342 134.334 74.0554Z" fill="white"/>
<path d="M130.443 90.0649C131.286 91.0686 131.524 92.4486 131.065 93.6766C130.237 95.73 127.757 91.0843 130.443 90.0649V90.0649Z" fill="white"/>
<path d="M144.448 99.8809C144.448 99.8809 142.856 111.181 145.355 114.582" stroke="white" stroke-width="0.3" stroke-linecap="round"/>
<path d="M172.22 83.8956C172.22 83.8956 168.878 96.637 170.127 98.2149C171.377 99.7929 170.96 91.0896 172.22 91.0553C173.479 91.021 174.175 79.985 172.22 83.8956V83.8956Z" fill="white"/>
<path d="M170.128 101.655C171.019 102.573 171.512 103.806 171.5 105.085C171.372 107.075 168.878 105.247 170.128 101.655V101.655Z" fill="white"/>
<path d="M199.697 89.1681C199.697 89.1681 198.291 97.0089 200.638 99.9492C202.985 102.89 200.021 95.9798 202.491 94.74C204.96 93.5001 200.109 83.8559 199.697 89.1681Z" fill="white"/>
<path d="M199.697 85.2186C199.697 85.2186 201.971 85.9586 201.736 83.2584C201.501 80.5582 196.287 84.7237 199.697 85.2186Z" fill="white"/>
<path d="M174.528 145.598C174.528 145.598 177.424 159.398 180.756 158.241" stroke="white" stroke-width="0.3" stroke-linecap="round"/>
<path d="M114.144 176.026C114.144 176.026 102.118 181.838 101.927 197.211C101.735 212.584 106.366 184.062 114.144 185.542C121.921 187.022 120.995 172.992 114.144 176.026Z" fill="white"/>
<path d="M101.922 207.027C101.922 207.027 105.627 213.696 101.922 218.695C98.2173 223.693 95.8112 203.871 101.922 207.027Z" fill="white"/>
<path d="M209.714 233.043C209.714 233.043 211.934 261.295 223.235 267.406C234.535 273.517 212.307 241.213 212.679 230.324C213.051 219.435 208.322 224.306 209.714 233.043V233.043Z" fill="white"/>
<path d="M230.766 273.335C230.766 273.335 236.755 274.629 237.137 279.074C237.519 283.519 225.332 275.742 230.766 273.335Z" fill="white"/>
<path d="M156.989 172.306C156.989 172.306 173.116 171.282 185.123 177.569" stroke="#232323" stroke-width="0.3" stroke-linecap="round"/>
<path d="M268.432 227.447C270.167 233.778 273.573 239.835 280.262 240.188" stroke="#232323" stroke-width="0.3" stroke-linecap="round"/>
<path d="M266.673 212.75C266.655 214.864 266.753 216.978 266.967 219.081" stroke="#232323" stroke-width="0.3" stroke-linecap="round"/>
<path d="M221.01 119.605C221.01 119.605 227.321 114.215 228.566 115.626C229.811 117.038 223.043 119.885 224.759 121.551C226.474 123.217 217.089 122.521 221.01 119.605V119.605Z" fill="white"/>
<path d="M230.066 114.391C230.066 114.391 231.212 116.195 232.482 114.391C233.751 112.588 228.919 112.583 230.066 114.391Z" fill="white"/>
<path d="M242.547 93.4858C242.547 93.4858 244.341 101.17 236.48 108.771" stroke="white" stroke-width="0.3" stroke-linecap="round"/>
<path d="M187.764 167.278C187.764 167.278 185.078 171.365 188.416 173.085" stroke="white" stroke-width="0.3" stroke-linecap="round"/>
<path d="M230.085 157.668C230.085 157.668 233.398 160.765 236 167.273" stroke="white" stroke-width="0.3" stroke-linecap="round"/>
<path d="M226.449 151.278C225.333 152.188 224.596 153.48 224.381 154.904" stroke="white" stroke-width="0.3" stroke-linecap="round"/>
<path d="M233.28 145.598C232.719 146.229 232.293 146.97 232.031 147.773" stroke="white" stroke-width="0.3" stroke-linecap="round"/>
<path d="M240.352 140.075C240.053 140.475 239.803 140.91 239.607 141.369" stroke="white" stroke-width="0.3" stroke-linecap="round"/>
<path d="M254.593 132.141C254.593 132.141 261.88 132.264 264.536 134.591" stroke="white" stroke-width="0.3" stroke-linecap="round"/>
<path d="M270.392 146.47C272.048 146.862 273.524 146.808 274.577 146.029" stroke="white" stroke-width="0.3" stroke-linecap="round"/>
<path d="M256.014 137.821C256.014 137.821 261.532 142.565 266.795 145.123" stroke="white" stroke-width="0.3" stroke-linecap="round"/>
<path d="M206.151 191.653C206.151 191.653 205.171 200.964 206.151 204.184" stroke="white" stroke-width="0.3" stroke-linecap="round"/>
<path d="M93.772 228.883C93.772 228.883 90.621 242.957 93.772 242.957" stroke="white" stroke-width="0.3" stroke-linecap="round"/>
<path d="M174.278 46.2639C174.278 46.2639 176.807 41.8534 179.032 42.8679C181.257 43.8823 176.376 44.0391 177.733 45.4602C179.091 46.8814 173.597 48.4251 174.278 46.2639Z" fill="white"/>
<path d="M180.943 41.878C180.943 41.878 182.477 41.0792 183.222 41.878C183.967 42.6768 180.267 43.4461 180.943 41.878Z" fill="white"/>
<path d="M330.042 264.691C330.042 264.691 329.116 266.602 331.953 272.532C334.791 278.461 329.944 261.775 330.042 264.691Z" fill="white"/>
<path d="M333.433 276.976C333.433 276.976 332.203 275.016 333.433 274.693C334.663 274.369 334.178 277.349 333.433 276.976Z" fill="white"/>
<path d="M310.283 275.84L321.147 268.455" stroke="white" stroke-width="0.3" stroke-linecap="round"/>
<path d="M126.43 265.984C126.43 266.357 128.282 276.359 131.369 275.496C134.457 274.634 128.037 261.667 126.43 265.367" fill="white"/>
<path d="M132.849 277.369C132.849 277.369 135.692 280.064 135.3 281.544C134.908 283.024 131.614 278.751 132.849 277.369Z" fill="white"/>
<path d="M109.763 294.138C114.385 292.171 119.24 290.803 124.209 290.065" stroke="white" stroke-width="0.3" stroke-linecap="round"/>
<path d="M175.591 59.1182C175.591 59.1182 174.097 63.8472 173.465 64.9694C172.832 66.0916 176.807 65.7829 176.807 65.7829" stroke="#232323" stroke-width="0.3" stroke-linecap="round"/>
<path d="M182.109 59.0702C182.122 58.5615 181.037 58.1218 179.687 58.0881C178.337 58.0544 177.232 58.4395 177.22 58.9481C177.207 59.4568 178.291 59.8965 179.641 59.9302C180.991 59.9639 182.096 59.5788 182.109 59.0702Z" fill="white" stroke="#232323" stroke-width="0.3"/>
<path d="M178.806 58.1333C177.885 58.2411 177.223 58.5596 177.213 58.9517C177.204 59.3437 177.851 59.6868 178.762 59.8436C179.277 59.726 179.649 59.4025 179.659 59.0105C179.669 58.6185 179.311 58.2754 178.806 58.1333Z" fill="#232323"/>
<path d="M173.897 59.3182C173.909 58.8096 172.825 58.3699 171.475 58.3362C170.125 58.3025 169.02 58.6875 169.007 59.1962C168.995 59.7048 170.079 60.1445 171.429 60.1782C172.779 60.2119 173.884 59.8269 173.897 59.3182Z" fill="white" stroke="#232323" stroke-width="0.3"/>
<path d="M170.598 58.3784C169.676 58.4862 169.015 58.8048 169.005 59.1919C168.995 59.579 169.642 59.9319 170.554 60.0887C171.068 59.9711 171.441 59.6477 171.45 59.2556C171.46 58.8636 171.102 58.5205 170.598 58.3784V58.3784Z" fill="#232323"/>
<path d="M174.724 68.8947C174.804 70.0056 175.47 70.9896 176.472 71.476C177.474 71.9625 178.659 71.8775 179.581 71.253C180.504 70.6286 181.023 69.5596 180.943 68.4487L174.724 68.8947Z" fill="#232323"/>
<path d="M180.625 70.0223C180.216 69.5433 179.618 69.2674 178.988 69.2676C177.783 69.2676 176.807 70.2439 176.807 71.4483V71.6198C177.204 71.7555 177.624 71.8105 178.042 71.7816C179.157 71.7032 180.144 71.0311 180.625 70.0223Z" fill="#C62626"/>
<path fill-rule="evenodd" clip-rule="evenodd" d="M174.724 68.8942C174.804 70.0051 175.47 70.9891 176.472 71.4755C177.474 71.962 178.659 71.877 179.581 71.2525C180.504 70.6281 181.023 69.5591 180.943 68.4482L174.724 68.8942Z" stroke="#232323" stroke-width="0.3" stroke-linecap="round"/>
<path d="M253.24 53.2471C253.24 53.2471 282.869 55.3592 280.276 82.2043" stroke="#232323" stroke-width="0.3"/>
<path d="M79.2422 236.557C79.2422 236.557 72.058 260.628 93.7723 260.011" stroke="#232323" stroke-width="0.3"/>
<path d="M344.449 240.178C344.449 240.178 348.438 236.454 348.806 251.655" stroke="#232323" stroke-width="0.3"/>
</svg>
